<?xml version="1.0" encoding="UTF-8"?>
<svg width="16px" height="16px" viewBox="0 0 16 16" version="1.1" xmlns="http://www.w3.org/2000/svg" xmlns:xlink="http://www.w3.org/1999/xlink">
    <path d="M1.4375,1.5 L14.5625,1.5 C15.081055,1.5 15.5,1.914955 15.5,2.42857143 L15.5,3.35714286 C15.5,3.87075928 15.081055,4.28571429 14.5625,4.28571429 L1.4375,4.28571429 C0.918945402,4.28571429 0.5,3.87075928 0.5,3.35714286 L0.5,2.42857143 C0.5,1.914955 0.918945402,1.5 1.4375,1.5 Z M1.4375,5.21428571 L14.5625,5.21428571 L14.5625,12.6428571 C14.5625,13.6671871 13.7216793,14.5 12.6875,14.5 L3.3125,14.5 C2.27832022,14.5 1.4375,13.6671871 1.4375,12.6428571 L1.4375,5.21428571 Z M5.1875,7.53571429 C5.1875,7.79107152 5.39843741,8 5.65625,8 L10.34375,8 C10.6015621,8 10.8125,7.79107152 10.8125,7.53571429 C10.8125,7.28035705 10.6015621,7.07142857 10.34375,7.07142857 L5.65625,7.07142857 C5.39843741,7.07142857 5.1875,7.28035705 5.1875,7.53571429 Z" fill="currentColor"></path>
</svg>