<?xml version="1.0" encoding="UTF-8"?>
<svg width="16px" height="16px" viewBox="0 0 16 16" version="1.1" xmlns="http://www.w3.org/2000/svg" xmlns:xlink="http://www.w3.org/1999/xlink">
    <path d="M5.70710678,3.29289322 C5.31658249,2.90236893 4.68341751,2.90236893 4.29289322,3.29289322 L0.292893219,7.29289322 L0.219688767,7.37455101 L0.155687972,7.46391182 L0.101641152,7.56022533 L0.095,7.577 L0.0849217025,7.59605741 L0.073,7.629 L0.0582986258,7.66274122 L0.0433273992,7.70815633 L0.038,7.734 L0.0264107128,7.77070917 L0.022,7.799 L0.0155978637,7.82356849 L0.00672773133,7.88337887 L0.005,7.913 L0.00173309597,7.94096861 L0.002,7.967 L0,8 L0.002,8.033 L0.00173309597,8.05903139 L0.005,8.085 L0.00672773133,8.11662113 L0.0155978637,8.17643151 L0.022,8.2 L0.0264107128,8.22929083 L0.038,8.265 L0.0433273992,8.29184367 L0.0582986258,8.33725878 L0.073,8.37 L0.0849217025,8.40394259 L0.095,8.422 L0.101641152,8.43977467 L0.155687972,8.53608818 L0.198,8.594 L0.209704612,8.61289944 L0.219688767,8.62544899 L0.292893219,8.70710678 L4.29289322,12.7071068 C4.68341751,13.0976311 5.31658249,13.0976311 5.70710678,12.7071068 C6.09763107,12.3165825 6.09763107,11.6834175 5.70710678,11.2928932 L3.416,9 L15,9 C15.5128358,9 15.9355072,8.61395981 15.9932723,8.11662113 L16,8 C16,7.44771525 15.5522847,7 15,7 L3.415,7 L5.70710678,4.70710678 C6.06759074,4.34662282 6.09532028,3.77939176 5.79029539,3.38710056 L5.70710678,3.29289322 Z" fill="currentColor"></path>
</svg>