<?xml version="1.0" encoding="UTF-8"?>
<svg width="16px" height="16px" viewBox="0 0 16 16" version="1.1" xmlns="http://www.w3.org/2000/svg" xmlns:xlink="http://www.w3.org/1999/xlink">
  <path d="M7.5,1 C8.32842712,1 9,1.67157288 9,2.5 C9,3.09529799 8.65322055,3.60960129 8.15065146,3.85192011 L8.15065146,5.14807989 C8.4567348,5.2956611 8.70503163,5.54412855 8.85239583,5.8503361 L12.1476042,5.8503361 C12.3897251,5.34723379 12.9043122,5 13.5,5 C14.3284271,5 15,5.67157288 15,6.5 C15,7.09529799 14.6532206,7.60960129 14.1506515,7.85192011 L14.1506515,12.1480799 C14.6532206,12.3903987 15,12.904702 15,13.5 C15,14.3284271 14.3284271,15 13.5,15 C12.904702,15 12.3903987,14.6532206 12.1480799,14.1506515 L3.85192011,14.1506515 C3.60960129,14.6532206 3.09529799,15 2.5,15 C1.67157288,15 1,14.3284271 1,13.5 C1,12.904702 1.34677945,12.3903987 1.84934854,12.1480799 L1.84934854,3.85192011 C1.34677945,3.60960129 1,3.09529799 1,2.5 C1,1.67157288 1.67157288,1 2.5,1 C3.09529799,1 3.60960129,1.34677945 3.85192011,1.84934854 L6.14807989,1.84934854 C6.39039871,1.34677945 6.90470201,1 7.5,1 Z M6.14760417,3.1496639 L3.85239583,3.1496639 C3.70487318,3.45620071 3.45620071,3.70487318 3.1496639,3.85239583 L3.1496639,12.1476042 C3.45620071,12.2951268 3.70487318,12.5437993 3.85239583,12.8503361 L12.1476042,12.8503361 C12.2951268,12.5437993 12.5437993,12.2951268 12.8503361,12.1476042 L12.8503361,7.85239583 C12.5437993,7.70487318 12.2951268,7.45620071 12.1476042,7.1496639 L8.85239583,7.1496639 C8.61027487,7.65276621 8.09568783,8 7.5,8 C6.67157288,8 6,7.32842712 6,6.5 C6,5.90470201 6.34677945,5.39039871 6.84934854,5.14807989 L6.84934854,3.85192011 C6.58699139,3.72542193 6.36708964,3.52480325 6.21681402,3.27723481 L6.14760417,3.1496639 Z" fill="currentColor"></path>
</svg>
