<?xml version="1.0" encoding="UTF-8"?>
<svg width="16px" height="16px" viewBox="0 0 16 16" version="1.1" xmlns="http://www.w3.org/2000/svg" xmlns:xlink="http://www.w3.org/1999/xlink">
  <path d="M5.27873266,14.7855883 C5.56929242,14.4992003 5.57241692,14.0361041 5.27873266,13.7527629 L3.56036619,12.0770872 L14.2486058,12.0740403 C14.6641377,12.0740403 14.9984385,11.7480448 14.9984385,11.3428363 C14.9984385,10.9376279 14.6641377,10.6116324 14.2486058,10.6116324 L3.56036619,10.6116324 L5.27873266,8.93595665 C5.57241692,8.64956861 5.57241692,8.1864724 5.27873266,7.90313124 C4.9850484,7.61979008 4.51015401,7.61674321 4.21959376,7.90313124 L1.2202632,10.8249002 C0.926578935,11.1112882 0.926578935,11.5743845 1.2202632,11.8577256 L4.21959376,14.7825415 C4.5132785,15.0719764 4.98817241,15.0719764 5.27873266,14.7855883 Z M14.7797368,5.17547914 C15.0734211,4.88909111 15.0734211,4.42599489 14.7797368,4.14265373 L11.7804062,1.21479102 C11.486722,0.928402992 11.0118276,0.928402992 10.7212678,1.21479102 C10.4307081,1.50117906 10.4275836,1.96427527 10.7212678,2.24761643 L12.4396343,3.92329217 L1.75139465,3.92633904 C1.3358623,3.92633904 1.00156201,4.25233451 1.00156201,4.657543 C1.00156201,5.06275149 1.3358623,5.38874696 1.75139465,5.38874696 L12.4396343,5.38874696 L10.7212678,7.0644227 C10.4275836,7.35081073 10.4275836,7.81390695 10.7212678,8.09724811 C11.0149521,8.38058927 11.4898465,8.38363614 11.7804062,8.09724811 L14.7797368,5.17243227 L14.7797368,5.17547914 Z" fill="currentColor"></path>
</svg>
