<?xml version="1.0" encoding="UTF-8"?>
<svg width="16px" height="16px" viewBox="0 0 16 16" version="1.1" xmlns="http://www.w3.org/2000/svg" xmlns:xlink="http://www.w3.org/1999/xlink">
    <path d="M3.5,14 L3.5,2 C3.5,1.72500038 3.7249999,1.5 4,1.5 L9,1.5 L9,4 C9,4.55312538 9.4468751,5 10,5 L12.5,5 L12.5,14 C12.5,14.2749996 12.2749996,14.5 12,14.5 L4,14.5 C3.7249999,14.5 3.5,14.2749996 3.5,14 Z M4,0 C2.8968749,0 2,0.896875381 2,2 L2,14 C2,15.1031246 2.8968749,16 4,16 L12,16 C13.1031246,16 14,15.1031246 14,14 L14,4.828125 C14,4.296875 13.7906246,3.78750038 13.4156246,3.41250038 L10.5843754,0.584375381 C10.2093754,0.209375381 9.703125,0 9.171875,0 L4,0 Z M5,3 C4.7249999,3 4.5,3.22500038 4.5,3.5 C4.5,3.77499962 4.7249999,4 5,4 L7.5,4 C7.7750001,4 8,3.77499962 8,3.5 C8,3.22500038 7.7750001,3 7.5,3 L5,3 Z M5,5 C4.7249999,5 4.5,5.22500038 4.5,5.5 C4.5,5.77499962 4.7249999,6 5,6 L7.5,6 C7.7750001,6 8,5.77499962 8,5.5 C8,5.22500038 7.7750001,5 7.5,5 L5,5 Z M6.6937499,11.9312496 L6.99999952,10.90625 L7.5218749,12.6437502 C7.58124971,12.8406248 7.75312471,12.9812498 7.95624971,12.9968748 C8.15937471,13.0124998 8.35624981,12.90625 8.44687462,12.7218752 L8.77812481,12.0562506 C8.796875,12.0187502 8.8343749,11.9968758 8.875,11.9968758 C8.9156251,11.9968758 8.953125,12.0187511 8.97187519,12.0562506 L9.30312538,12.7218752 C9.38750029,12.890625 9.56250048,12.9968748 9.75000048,12.9968748 L10.9999995,12.9968748 C11.2749996,12.9968748 11.4999995,12.7718744 11.4999995,12.4968748 C11.4999995,12.2218752 11.2749996,11.9968748 10.9999995,11.9968748 L10.0593748,11.9968748 L9.8656249,11.609375 C9.6781249,11.234375 9.29374981,10.9968748 8.875,10.9968748 C8.60624981,10.9968748 8.3499999,11.09375 8.15312481,11.265625 L7.79999971,10.09375 C7.6937499,9.74062538 7.3687501,9.5 6.99999952,9.5 C6.6312499,9.5 6.3062501,9.74062538 6.19999981,10.0968752 L5.73437452,11.6437502 C5.67187452,11.8562498 5.47499943,12 5.25624943,12 L4.99999952,12 C4.72499943,12 4.49999952,12.2250004 4.49999952,12.5 C4.49999952,12.7749996 4.72499943,13 4.99999952,13 L5.25624943,13 C5.91874933,13 6.50312471,12.5656252 6.69374943,11.9312496 L6.6937499,11.9312496 Z" fill="currentColor"></path>
</svg>