<?xml version="1.0" encoding="UTF-8"?>
<svg width="16px" height="16px" viewBox="0 0 16 16" version="1.1" xmlns="http://www.w3.org/2000/svg" xmlns:xlink="http://www.w3.org/1999/xlink">
    <path d="M4,0 C2.8968749,0 2,0.896875381 2,2 L2,14 C2,15.1031246 2.8968749,16 4,16 L12,16 C13.1031246,16 14,15.1031246 14,14 L14,5 L10,5 C9.4468751,5 9,4.55312538 9,4 L9,0 L4,0 Z M10,0 L10,4 L14,4 L10,0 Z M4.5,2 L6.5,2 C6.7750001,2 7,2.22500038 7,2.5 C7,2.77499962 6.7750001,3 6.5,3 L4.5,3 C4.2249999,3 4,2.77499962 4,2.5 C4,2.22500038 4.2249999,2 4.5,2 Z M4.5,4 L6.5,4 C6.7750001,4 7,4.22500038 7,4.5 C7,4.77499962 6.7750001,5 6.5,5 L4.5,5 C4.2249999,5 4,4.77499962 4,4.5 C4,4.22500038 4.2249999,4 4.5,4 Z M6.1937499,11.9312496 C6.00312471,12.5656242 5.41874981,13 4.7562499,13 L4.5,13 C4.2249999,13 4,12.7749996 4,12.5 C4,12.2250004 4.2249999,12 4.5,12 L4.7562499,12 C4.9781251,12 5.17187548,11.8562498 5.23437548,11.6437502 L5.70000076,10.0968752 C5.80625105,9.74375057 6.13125086,9.5 6.5,9.5 C6.86875105,9.5 7.19375086,9.74062538 7.30000114,10.0968752 L7.66250134,11.3031254 C7.89375114,11.109375 8.18750143,11 8.5,11 C8.99687624,11 9.45000124,11.28125 9.67187643,11.7250004 L9.80937624,12 L11.5,12 C11.7750006,12 12,12.2250004 12,12.5 C12,12.7749996 11.7750006,13 11.5,13 L9.5,13 C9.30937576,13 9.13750076,12.8937502 9.05312586,12.7250004 L8.77812576,12.171875 C8.72500086,12.0656252 8.61875057,12 8.50312567,12 C8.38750076,12 8.27812576,12.0656252 8.22812557,12.171875 L7.95312548,12.7250004 C7.86250067,12.9093752 7.66562557,13.0187502 7.46250057,13 C7.25937557,12.9812498 7.08437538,12.8406248 7.02812576,12.6468754 L6.5,10.90625 L6.19375086,11.9312496 L6.1937499,11.9312496 Z" fill="currentColor"></path>
</svg>