<?xml version="1.0" encoding="UTF-8"?>
<svg width="16px" height="16px" viewBox="0 0 16 16" version="1.1" xmlns="http://www.w3.org/2000/svg" xmlns:xlink="http://www.w3.org/1999/xlink">
    <path d="M8.875,13.25 L2.75,13.25 L2.75,7.125 L4.5,7.125 L4.5,5.375 L2.75,5.375 C1.78476554,5.375 1,6.15976596 1,7.125 L1,13.25 C1,14.215234 1.78476554,15 2.75,15 L8.875,15 C9.84023404,15 10.625,14.215234 10.625,13.25 L10.625,11.5 L8.875,11.5 L8.875,13.25 Z M7.125,10.625 L13.25,10.625 C14.215234,10.625 15,9.84023404 15,8.875 L15,2.75 C15,1.78476596 14.215234,1 13.25,1 L7.125,1 C6.15976554,1 5.375,1.78476596 5.375,2.75 L5.375,8.875 C5.375,9.84023404 6.15976554,10.625 7.125,10.625 Z" fill="currentColor"></path>
</svg>