<?xml version="1.0" encoding="UTF-8"?>
<svg width="16px" height="16px" viewBox="0 0 16 16" version="1.1" xmlns="http://www.w3.org/2000/svg" xmlns:xlink="http://www.w3.org/1999/xlink">
  <path d="M6.6875,5.8125 C6.6875,3.87929654 8.25429654,2.3125 10.1875,2.3125 C12.1207035,2.3125 13.6875,3.87929654 13.6875,5.8125 C13.6875,7.74570304 12.1207035,9.3125 10.1875,9.3125 C9.90312517,9.3125 9.62695312,9.27968717 9.36445296,9.21406233 C9.14296842,9.15937483 8.907812,9.22499967 8.74648404,9.38906217 L7.94804704,10.1875 L6.46875,10.1875 C6.10507804,10.1875 5.8125,10.4800785 5.8125,10.84375 L5.8125,11.9375 L4.71875,11.9375 C4.35507804,11.9375 4.0625,12.2300785 4.0625,12.59375 L4.0625,13.6875 L2.3125,13.6875 L2.3125,11.551953 L6.61093742,7.25351554 C6.77226537,7.09218758 6.83789062,6.85703117 6.78593725,6.63554662 C6.72304654,6.37304646 6.68749958,6.09687483 6.68749958,5.8125 L6.6875,5.8125 Z M10.1875,1 C7.52968758,1 5.375,3.15468717 5.375,5.8125 C5.375,6.07226562 5.39414054,6.32656258 5.43515617,6.57539046 L1.19140625,10.8164062 C1.06835938,10.9394531 1,11.1062502 1,11.28125 L1,14.34375 C1,14.7074215 1.29257804,15 1.65625,15 L4.71875,15 C5.08242196,15 5.375,14.7074215 5.375,14.34375 L5.375,13.25 L6.46875,13.25 C6.83242196,13.25 7.125,12.9574215 7.125,12.59375 L7.125,11.5 L8.21875,11.5 C8.39374983,11.5 8.56054688,11.4316406 8.68359375,11.3085938 L9.42734408,10.5648434 C9.67617238,10.6031245 9.93046892,10.625 10.1902345,10.625 C12.8480465,10.625 15.0027337,8.47031283 15.0027337,5.8125 C15.0027337,3.15468717 12.8453128,1 10.1875,1 Z M11.0625,5.8125 C11.5457495,5.8125 11.9375,5.42074871 11.9375,4.9375 C11.9375,4.45425129 11.5457495,4.0625 11.0625,4.0625 C10.5792505,4.0625 10.1875,4.45425129 10.1875,4.9375 C10.1875,5.42074871 10.5792505,5.8125 11.0625,5.8125 Z" fill="currentColor"></path>
</svg>
