<?xml version="1.0" encoding="UTF-8"?>
<svg width="16px" height="16px" viewBox="0 0 16 16" version="1.1" xmlns="http://www.w3.org/2000/svg" xmlns:xlink="http://www.w3.org/1999/xlink">
    <path d="M8.49999952,3 C6.04374981,3 3.96562481,4.609375 3.2593751,6.828125 C4.30937481,6.296875 5.4937501,6 6.75,6 L9.49999952,6 C9.77499962,6 9.99999952,6.2249999 9.99999952,6.5 C9.99999952,6.7750001 9.77499962,7 9.49999952,7 L8.99999952,7 L6.75,7 C6.23124981,7 5.7281251,7.05937481 5.2437501,7.16874981 C4.43437529,7.35312462 3.6812501,7.68124962 3.01249981,8.12812519 C1.19687462,9.33749962 -4.76837158e-07,11.4031248 -4.76837158e-07,13.75 L-4.76837158e-07,14.25 C-4.76837158e-07,14.6656246 0.334374428,15 0.749999523,15 C1.16562462,15 1.49999952,14.6656246 1.49999952,14.25 L1.49999952,13.75 C1.49999952,12.2281246 2.14687443,10.859375 3.18124962,9.89999962 C3.79999971,12.2593746 5.9468751,14 8.49999952,14 L8.53125,14 C12.6593752,13.9781246 15.9999995,9.90937519 15.9999995,4.89375019 C15.9999995,3.5625 15.765625,2.296875 15.3406248,1.15625 C15.2593746,0.940625191 14.9437494,0.949999809 14.8343744,1.15312576 C14.2468748,2.25312519 13.0843754,3 11.75,3 L8.49999952,3 Z" fill="currentColor"></path>
</svg>