<?xml version="1.0" encoding="UTF-8"?>
<svg width="16px" height="16px" viewBox="0 0 16 16" version="1.1" xmlns="http://www.w3.org/2000/svg" xmlns:xlink="http://www.w3.org/1999/xlink">
    <path d="M11.25,1 C11.6642136,1 12,1.33578644 12,1.75 L12,2.57 L13,2.57 C14.1045695,2.57 15,3.4654305 15,4.57 L15,6.25 C15,6.66421356 14.6642136,7 14.25,7 C13.8357864,7 13.5,6.66421356 13.5,6.25 L13.5,6 L2.5,6 L2.5,13 C2.5,13.2761424 2.72385763,13.5 3,13.5 L6.25,13.5 C6.66421356,13.5 7,13.8357864 7,14.25 C7,14.6642136 6.66421356,15 6.25,15 L3,15 C1.8954305,15 1,14.1045695 1,13 L1,4.57 C1,3.4654305 1.8954305,2.57 3,2.57 L4,2.57 L4,1.75 C4,1.33578644 4.33578644,1 4.75,1 C5.16421356,1 5.5,1.33578644 5.5,1.75 L5.5,2.57 L10.5,2.57 L10.5,1.75 C10.5,1.33578644 10.8357864,1 11.25,1 Z M8.4375,9.1875 C10.2495117,9.1875 11.71875,10.6567381 11.71875,12.46875 L11.718,14 L13.5,14 C13.7761424,14 14,14.2238576 14,14.5 C14,14.7761424 13.7761424,15 13.5,15 L8.5,15 C8.22385763,15 8,14.7761424 8,14.5 C8,14.2238576 8.22385763,14 8.5,14 L10.3450071,13.9859121 L10.3450197,12.9087485 C8.73918554,12.6953757 7.5,11.3203639 7.5,9.65625 C7.5,9.39697248 7.7094727,9.1875 7.96875,9.1875 L8.4375,9.1875 Z M14.53125,8.25 C14.7905275,8.25 15,8.45947248 15,8.71875 C15,10.3828126 13.7607421,11.7583008 12.1552733,11.9707031 C12.0512693,11.1884767 11.707031,10.4824218 11.1987302,9.93017596 C11.7597654,8.92822248 12.8320312,8.25 14.0625,8.25 L14.53125,8.25 Z" fill="currentColor"></path>
</svg>