<?xml version="1.0" encoding="UTF-8"?>
<svg width="16px" height="16px" viewBox="0 0 16 16" version="1.1" xmlns="http://www.w3.org/2000/svg" xmlns:xlink="http://www.w3.org/1999/xlink">
    <path d="M4.67500019,7.32628928 C5.328125,7.11694955 6.0250001,7.00134407 6.75,7.00134407 L9.25,7.00134407 C9.66562462,7.00134407 10,7.3356628 10,7.75121806 C10,8.16677285 9.66562462,8.50109206 9.25,8.50109206 L6.75,8.50109206 C5.95625019,8.50109206 5.203125,8.67606285 4.53125,8.99163501 C4.7718749,10.9694273 6.45625019,12.50042 8.49687481,12.50042 L8.5,12.50042 L8.52499962,12.50042 L8.52812481,12.50042 C11.5687504,12.4847976 14.5,9.366572 14.5,4.89544813 C14.5,4.49551476 14.4750004,4.10495539 14.4281254,3.72377001 C13.65625,4.21743668 12.7375002,4.50176409 11.75,4.50176409 L8.5,4.50176409 C6.69999981,4.50176409 5.1781249,5.69218925 4.67500019,7.32628928 Z M3.01249981,8.12927972 C3.203125,5.26726046 5.5875001,3.0020161 8.5,3.0020161 L11.75,3.0020161 C12.6468754,3.0020161 13.4624996,2.66457319 14.0812502,2.11154074 C14.1031256,2.0927937 14.125,2.07092294 14.1468754,2.0521759 C14.3531256,1.85845807 14.5375004,1.63974482 14.6906252,1.39916082 C14.7406254,1.32104895 14.7906256,1.23981241 14.8343754,1.1554512 C14.9437504,0.95236033 15.2593756,0.942987287 15.3406258,1.15857587 C15.3812504,1.26793249 15.4187508,1.37728912 15.4562511,1.48977041 C15.546876,1.76784849 15.6281261,2.04905124 15.7000008,2.33962703 C15.7156258,2.39899282 15.7281256,2.45835765 15.7406254,2.51459782 C15.9093752,3.27384581 16,4.07058693 16,4.89544813 C16,9.91023046 12.6593752,13.9782963 8.53125,14.000168 L8.5,14.000168 C5.9468751,14.000168 3.80000019,12.2598351 3.1812501,9.90085646 C2.1468749,10.8600707 1.5,12.2285903 1.5,13.75021 L1.5,14.250126 C1.5,14.6656808 1.1656251,15 0.75,15 C0.334374905,15 0,14.6656808 0,14.250126 L0,13.75021 C0,11.4037291 1.1968751,9.33845097 3.01250029,8.12927972 L3.01249981,8.12927972 Z" fill="currentColor"></path>
</svg>