<?xml version="1.0" encoding="UTF-8"?>
<svg width="16px" height="16px" viewBox="0 0 16 16" version="1.1" xmlns="http://www.w3.org/2000/svg" xmlns:xlink="http://www.w3.org/1999/xlink">
    <path d="M11,3.5 L13.25,3.5 C13.6642136,3.5 14,3.83578644 14,4.25 C14,4.66421356 13.6642136,5 13.25,5 L2.75,5 C2.33578644,5 2,4.66421356 2,4.25 C2,3.83578644 2.33578644,3.5 2.75,3.5 L5,3.5 L5.22758337,1.98930703 C5.35656277,1.13314484 6.0922341,0.5 6.95805705,0.5 L9.06954863,0.5 C9.94740564,0.5 10.6894203,1.15038698 10.8044577,2.0206739 L11,3.5 Z M5.156,13.775 C5.16884864,13.902843 5.27651298,14.0001301 5.405,14 L10.595,14 C10.723487,14.0001301 10.8311514,13.902843 10.844,13.775 L11.5,5.75 L12.996,5.75 L12.336,13.924 C12.247506,14.8189847 11.4943488,15.5007629 10.595,15.5000893 L5.405,15.5000893 C4.50635638,15.4998829 3.75386436,14.8191391 3.664,13.925 L3.004,5.75 L4.496,5.75 L5.156,13.775 Z M6.5,3.5 L9.5,3.5 L9.32265491,2.21580014 C9.30557469,2.09211803 9.19986113,2 9.07500522,2 L6.89504102,2 C6.76799402,2 6.66115006,2.0952875 6.64667007,2.22150663 L6.5,3.5 Z" fill="currentColor"></path>
</svg>