<?xml version="1.0" encoding="UTF-8"?>
<svg width="16px" height="16px" viewBox="0 0 16 16" version="1.1" xmlns="http://www.w3.org/2000/svg" xmlns:xlink="http://www.w3.org/1999/xlink">
    <path d="M14.4871015,4.57433978 C14.8602939,4.98145877 14.832791,5.61402614 14.425672,5.98721855 L8.39659658,11.5129912 L8.3279401,11.5662365 L8.29820711,11.5866584 L8.22352816,11.6310862 L8.0830708,11.6931572 L7.96897205,11.7258737 L7.88345266,11.7412011 L7.7655611,11.7499533 L7.61644209,11.7412011 L7.49993436,11.7185109 L7.41682395,11.6931572 L7.30663758,11.6467329 L7.27636659,11.6310862 L7.17195465,11.5662365 L7.07422275,11.4872185 L1.07422275,5.98721855 C0.667103756,5.61402614 0.639600826,4.98145877 1.01279323,4.57433978 C1.38598564,4.16722079 2.01855301,4.13971786 2.425672,4.51291027 L7.74995326,9.39306441 L13.0742227,4.51291027 C13.4500249,4.16842497 14.0179251,4.16536055 14.3965966,4.48713758 L14.4871015,4.57433978 Z" fill="currentColor"></path>
</svg>