<?xml version="1.0" encoding="UTF-8"?>
<svg width="16px" height="16px" viewBox="0 0 16 16" version="1.1" xmlns="http://www.w3.org/2000/svg" xmlns:xlink="http://www.w3.org/1999/xlink">
    <path d="M12.2188989,7.3177731 L12.5278829,7.00878865 L11.60093,6.08183527 L9.90288292,4.38378823 L8.9759308,3.45683527 L8.66694676,3.76582015 L8.04897784,4.38378906 L2.60210251,9.83066356 C2.31772726,10.1150384 2.10991459,10.4677726 1.99507093,10.8533196 L1.02710234,14.1455078 C0.958742967,14.3751951 1.02163368,14.6240234 1.19389938,14.793555 C1.36616509,14.9630866 1.61225884,15.0259769 1.84194659,14.9603521 L5.1313998,13.9923835 C5.51694684,13.8775394 5.86968105,13.6697276 6.15405588,13.3853519 L11.6009312,7.93847615 L12.2188993,7.3177731 L12.2188989,7.3177731 Z M5.37475943,11.9224604 L5.12593072,12.5431639 C5.01655572,12.6279297 4.89350884,12.69082 4.76225876,12.7318356 L2.62397759,13.3607419 L3.25288384,11.2251948 C3.29116534,11.0912106 3.35679059,10.9681637 3.44155638,10.8615233 L4.06225943,10.612695 L4.06225943,11.487695 C4.06225943,11.7283196 4.25913434,11.925195 4.49975943,11.925195 L5.37475943,11.925195 L5.37475943,11.9224604 Z M10.9173379,1.51269531 L10.5235872,1.90917969 L9.90561914,2.52714777 L9.59389972,2.83613265 L10.5208527,3.7630856 L12.2188997,5.46113265 L13.1458527,6.3880856 L13.4548367,6.07910156 L14.0728056,5.46113181 L14.46929,5.06464744 C15.1528838,4.38105369 15.1528838,3.27363181 14.46929,2.59003806 L13.394681,1.51269531 C12.7110872,0.829101562 11.6036653,0.829101562 10.9200716,1.51269531 L10.9173379,1.51269531 Z M9.6212443,6.10644531 L5.6837443,10.0439453 C5.51421314,10.2134769 5.23530697,10.2134769 5.06577539,10.0439453 C4.8962438,9.87441373 4.89624422,9.59550798 5.06577539,9.4259764 L9.00327539,5.4884764 C9.17280697,5.31894565 9.45171272,5.31894565 9.6212443,5.4884764 C9.79077589,5.65800714 9.79077589,5.93691373 9.6212443,6.10644531 Z" fill="currentColor"></path>
</svg>