<?xml version="1.0" encoding="UTF-8"?>
<svg width="16px" height="16px" viewBox="0 0 16 16" version="1.1" xmlns="http://www.w3.org/2000/svg" xmlns:xlink="http://www.w3.org/1999/xlink">
    <path d="M3.5,14 L3.5,2 C3.5,1.725 3.725,1.5 4,1.5 L9,1.5 L9,4 C9,4.553125 9.446875,5 10,5 L12.5,5 L12.5,14 C12.5,14.275 12.275,14.5 12,14.5 L4,14.5 C3.725,14.5 3.5,14.275 3.5,14 Z M4,0 C2.896875,0 2,0.896875 2,2 L2,14 C2,15.103125 2.896875,16 4,16 L12,16 C13.103125,16 14,15.103125 14,14 L14,4.828125 C14,4.296875 13.790625,3.7875 13.415625,3.4125 L10.584375,0.584375 C10.209375,0.209375 9.703125,0 9.171875,0 L4,0 Z M6.840625,7.290625 C6.5875,6.9625 6.115625,6.90625 5.7875,7.159375 C5.459375,7.4125 5.403125,7.884375 5.65625,8.2125 L7.05,10 L5.659375,11.790625 C5.40625,12.11875 5.4625,12.5875 5.790625,12.84375 C6.11875,13.1 6.5875,13.040625 6.84375,12.7125 L8,11.221875 L9.159375,12.709375 C9.4125,13.0375 9.884375,13.09375 10.2125,12.840625 C10.540625,12.5875 10.596875,12.115625 10.34375,11.7875 L8.95,10 L10.340625,8.209375 C10.59375,7.88125 10.5375,7.4125 10.209375,7.15625 C9.88125,6.9 9.4125,6.959375 9.15625,7.2875 L8,8.778125 L6.840625,7.290625 Z" fill="currentColor"></path>
</svg>