<?xml version="1.0" encoding="UTF-8"?>
<svg width="16px" height="16px" viewBox="0 0 16 16" version="1.1" xmlns="http://www.w3.org/2000/svg" xmlns:xlink="http://www.w3.org/1999/xlink">
    <path d="M14.25,10 C14.6642136,10 15,10.3357864 15,10.75 L15,13.25 C15,14.2164983 14.2164983,15 13.25,15 L2.75,15 C1.78350169,15 1,14.2164983 1,13.25 L1,10.75 C1,10.3357864 1.33578644,10 1.75,10 C2.16421356,10 2.5,10.3357864 2.5,10.75 L2.5,13.25 C2.5,13.388 2.612,13.5 2.75,13.5 L13.25,13.5 C13.3880712,13.5 13.5,13.3880712 13.5,13.25 L13.5,10.75 C13.5,10.3357864 13.8357864,10 14.25,10 Z M8,1 C8.41421356,1 8.75,1.33578644 8.75,1.75 L8.75,8.439 L10.72,6.47 C10.9093508,6.28064923 11.1853355,6.20669934 11.4439935,6.27600653 C11.7026514,6.34531372 11.9046863,6.54734858 11.9739935,6.80600653 C12.0433007,7.06466449 11.9693508,7.34064924 11.78,7.53 L8.53,10.78 C8.38950471,10.9206955 8.19883198,10.9997543 8,10.9997543 C7.80116802,10.9997543 7.61049529,10.9206955 7.47,10.78 L4.22,7.53 C4.03064923,7.34064924 3.95669933,7.06466449 4.02600652,6.80600653 C4.09531371,6.54734857 4.29734857,6.34531371 4.55600653,6.27600652 C4.81466449,6.20669933 5.09064924,6.28064923 5.28,6.47 L7.25,8.439 L7.25,1.75 C7.25,1.33578644 7.58578644,1 8,1 Z" fill="currentColor"></path>
</svg>