<?xml version="1.0" encoding="UTF-8"?>
<svg width="16px" height="16px" viewBox="0 0 16 16" version="1.1" xmlns="http://www.w3.org/2000/svg" xmlns:xlink="http://www.w3.org/1999/xlink">
  <path d="M0.125,3.625 C0.125,2.17578125 1.30078125,1 2.75,1 C4.19921875,1 5.375,2.17578125 5.375,3.625 L0.125,3.625 Z M5.08515608,4.5 L3.75625008,7.7265625 C3.66875017,7.93710929 3.625,8.1640625 3.625,8.39374983 L3.625,14.125 C3.625,14.4449222 3.70976579,14.7429689 3.86015642,15 L1.4375,15 C0.712890625,15 0.125,14.4121094 0.125,13.6875 L0.125,4.5 L5.08515608,4.5 Z M4.5,14.125 L4.5,8.39101529 C4.5,8.27617121 4.52187508,8.1640625 4.56562483,8.05742121 L5.90273404,4.81171775 C5.98476529,4.609375 6.14062458,4.44804621 6.3374995,4.35507762 L9.81289029,2.70898438 C10.0507812,2.59687483 10.3242188,2.59687483 10.5621089,2.70898438 L14.0374997,4.35507846 C14.234375,4.44804704 14.3902347,4.61210871 14.472266,4.81171858 L15.809376,8.05742121 C15.8531253,8.16406167 15.8750017,8.27617121 15.8750017,8.39101529 L15.8750017,14.125 C15.8750017,14.6089847 15.4839864,15 15,15 L11.9375,15 L11.9375,13.25 C11.9375,12.5253906 11.3496094,11.9375 10.625,11.9375 L9.75,11.9375 C9.02539062,11.9375 8.4375,12.5253906 8.4375,13.25 L8.4375,15 L5.375,15 C4.89101571,15 4.5,14.6089847 4.5,14.125 Z M8.875,7.78125 L8.875,9.09375 C8.875,9.45742154 9.16757846,9.75 9.53125,9.75 L10.84375,9.75 C11.2074215,9.75 11.5,9.45742154 11.5,9.09375 L11.5,7.78125 C11.5,7.41757804 11.2074215,7.125 10.84375,7.125 L9.53125,7.125 C9.16757846,7.125 8.875,7.41757804 8.875,7.78125 Z" fill="currentColor"></path>
</svg>
