<?xml version="1.0" encoding="UTF-8"?>
<svg width="16px" height="16px" viewBox="0 0 16 16" version="1.1" xmlns="http://www.w3.org/2000/svg" xmlns:xlink="http://www.w3.org/1999/xlink">
    <path d="M1.4375,13.6875 L1.4375,5.8125 L4.59023446,5.8125 L5.23007804,4.43984342 C5.42695296,4.01601529 5.77148437,3.67695296 6.1953125,3.48281217 C5.92460954,2.06914079 4.68046892,1 3.1875,1 C1.49492162,1 0.124999583,2.36992204 0.124999583,4.0625 L0.124999583,13.6875 C0.124999583,14.4121094 0.712890208,15 1.43749958,15 L4.17460912,15 C3.87382787,14.6363285 3.67968708,14.1851566 3.63320279,13.6875 L1.43749958,13.6875 L1.4375,13.6875 Z M4.93749958,4.5 L1.43749958,4.5 L1.43749958,4.0625 C1.43749958,3.09726596 2.22226512,2.3125 3.18749958,2.3125 C4.15273404,2.3125 4.93749958,3.09726596 4.93749958,4.0625 L4.93749958,4.5 Z M7.17695254,5.44062483 L10.1874996,4.12265658 L13.1980466,5.44062483 L14.5624996,8.36640608 L14.5624996,13.46875 C14.5624996,13.5890623 14.4640628,13.6875 14.3437496,13.6875 L11.9374996,13.6875 L11.9374996,12.15625 C11.9374996,11.551953 11.4480466,11.0625 10.8437496,11.0625 L9.53124958,11.0625 C8.92695254,11.0625 8.43749958,11.551953 8.43749958,12.15625 L8.43749958,13.6875 L6.03124958,13.6875 C5.91093725,13.6875 5.81249958,13.5890623 5.81249958,13.46875 L5.81249958,8.36367154 L7.17695254,5.43789029 L7.17695254,5.44062483 Z M10.6249996,2.88124967 C10.346093,2.75820279 10.0289062,2.75820279 9.74726504,2.88124967 L6.57539004,4.27031267 C6.33203083,4.37695313 6.1351555,4.56835938 6.02304637,4.80898404 L4.60390592,7.85234392 C4.53554654,7.99726588 4.49999958,8.15585971 4.49999958,8.31445312 L4.49999958,13.46875 C4.49999958,14.3136717 5.18632787,15 6.03124958,15 L14.3437496,15 C15.1886721,15 15.8749996,14.3136717 15.8749996,13.46875 L15.8749996,8.31445312 C15.8749996,8.15585971 15.839453,7.99726546 15.7710937,7.85234392 L14.3519524,4.80898404 C14.2398437,4.56835938 14.0429683,4.37695313 13.7996083,4.27031267 L10.6249996,2.88124967 Z M8.87499958,7.78125 L8.87499958,9.09375 C8.87499958,9.45742154 9.16757804,9.75 9.53124958,9.75 L10.8437496,9.75 C11.2074211,9.75 11.4999996,9.45742154 11.4999996,9.09375 L11.4999996,7.78125 C11.4999996,7.41757804 11.2074211,7.125 10.8437496,7.125 L9.53124958,7.125 C9.16757804,7.125 8.87499958,7.41757804 8.87499958,7.78125 Z" fill="currentColor"></path>
</svg>