<?xml version="1.0" encoding="UTF-8"?>
<svg width="16px" height="16px" viewBox="0 0 16 16" version="1.1" xmlns="http://www.w3.org/2000/svg" xmlns:xlink="http://www.w3.org/1999/xlink">
  <path d="M10.6666668,13.9962327 L5.33333362,12.5005802 L5.33333362,2.00376726 L10.6666668,3.49941983 L10.6666668,13.9962327 Z M11.5555557,13.9635405 L11.5555557,3.43403627 L15.0861105,2.04735657 C15.524999,1.87572462 16,2.1917453 16,2.65488003 L16,11.7759104 C16,12.0428936 15.8333333,12.2826344 15.5805562,12.3834338 L11.5555557,13.9608161 L11.5555557,13.9635405 Z M0.419445027,3.61656617 L4.44444475,2.03918394 L4.44444475,12.5659637 L0.913889119,13.9526434 C0.475000157,14.1242754 0,13.8082547 0,13.34512 L0,4.22408963 C0,3.95710642 0.166666662,3.71736559 0.419444603,3.61656617 L0.419445027,3.61656617 Z" fill="currentColor"></path>
</svg>
