<?xml version="1.0" encoding="UTF-8"?>
<svg width="16px" height="16px" viewBox="0 0 16 16" version="1.1" xmlns="http://www.w3.org/2000/svg" xmlns:xlink="http://www.w3.org/1999/xlink">
    <path d="M15.7111104,2.1141478 C15.891666,2.23464979 16,2.43280844 16,2.64435621 L16,11.6418378 C16,11.90962 15.8277774,12.147946 15.5694444,12.2416697 L10.9027778,13.9554757 C10.758333,14.0090322 10.6000002,14.0117102 10.4555554,13.9635089 L5.34722222,12.3246824 L0.902777778,13.9581537 C0.697222392,14.0331324 0.466666751,14.0063542 0.286111196,13.8858522 C0.10555564,13.7653502 0,13.5671916 0,13.3556438 L0,4.35816222 C0,4.09038003 0.169444614,3.85205405 0.430555556,3.75833028 L5.09722222,2.04452427 C5.24166658,1.99096783 5.39999983,1.98828985 5.54444461,2.03649031 L10.6527778,3.67531764 L15.0972222,2.04184628 C15.3027785,1.9668676 15.5333337,1.99364582 15.7138892,2.1141478 L15.7111104,2.1141478 Z M1.33333333,4.80000284 L1.33333333,12.4237621 L4.66666667,11.1999972 L4.66666667,3.5762379 L1.33333333,4.80000284 Z M10,12.4639294 L10,4.82142508 L6,3.53607057 L6,11.1785749 L10,12.4639294 Z M11.3333333,12.4237621 L14.6666667,11.1999972 L14.6666667,3.5762379 L11.3333333,4.80000284 L11.3333333,12.4237621 Z" fill="currentColor"></path>
</svg>