<?xml version="1.0" encoding="UTF-8"?>
<svg width="16px" height="16px" viewBox="0 0 16 16" version="1.1" xmlns="http://www.w3.org/2000/svg" xmlns:xlink="http://www.w3.org/1999/xlink">
    <path d="M8,16 C4.6875,16 2,13.3125 2,10 C2,7.1500001 6.0687499,1.80312538 7.20625019,0.365625381 C7.39375019,0.131250381 7.671875,0 7.97187519,0 L8.02812529,0 C8.32812548,0 8.60625029,0.131250381 8.79375029,0.365625381 C9.9312501,1.80312538 14,7.1500001 14,10 C14,13.3125 11.3125,16 8,16 Z M5,10.5 C5,10.2250004 4.7750001,10 4.5,10 C4.2249999,10 4,10.2250004 4,10.5 C4,12.4343748 5.56562519,14 7.5,14 C7.77500057,14 8,13.7749996 8,13.5 C8,13.2250004 7.77500057,13 7.5,13 C6.11875057,13 5,11.8812504 5,10.5 L5,10.5 Z" fill="currentColor"></path>
</svg>