<?xml version="1.0" encoding="UTF-8"?>
<svg width="16px" height="16px" viewBox="0 0 16 16" version="1.1" xmlns="http://www.w3.org/2000/svg" xmlns:xlink="http://www.w3.org/1999/xlink">
    <path d="M8,14.5 C5.515625,14.5 3.5,12.484375 3.5,10 C3.5,9.59375 3.65937519,8.953125 4.03125048,8.09062481 C4.39062548,7.25937462 4.89375067,6.34687471 5.45312595,5.44375038 C6.35937595,3.98124981 7.35937595,2.625 8,1.78750038 C8.64062595,2.62187481 9.64375114,3.98124981 10.546876,5.44375038 C11.1062508,6.34687471 11.609376,7.2562499 11.968751,8.09062481 C12.3406258,8.953125 12.5,9.59687519 12.5,10 C12.5,12.484375 10.484376,14.5 8,14.5 L8,14.5 Z M2.00000095,10 C2.00000095,13.3125 4.68750095,16 8.00000095,16 C11.312501,16 14.000001,13.3125 14.000001,10 C14.000001,7.1500001 9.93125105,1.80312538 8.79375076,0.365625381 C8.60625076,0.131250381 8.32812595,0 8.02812576,0 L7.97187567,0 C7.67187548,0 7.39375067,0.131250381 7.20625067,0.365625381 C6.06875086,1.80312538 2.00000095,7.1500001 2.00000095,10 Z M6.50000095,9.75 C6.50000095,9.33437538 6.16562605,9 5.75000095,9 C5.33437586,9 5.00000095,9.33437538 5.00000095,9.75 C5.00000095,11.5437498 6.45625114,13 8.25000095,13 C8.66562605,13 9.00000095,12.6656246 9.00000095,12.25 C9.00000095,11.8343754 8.66562605,11.5 8.25000095,11.5 C7.28437614,11.5 6.50000095,10.7156248 6.50000095,9.75 Z" fill="currentColor"></path>
</svg>