<?xml version="1.0" encoding="UTF-8"?>
<svg width="16px" height="16px" viewBox="0 0 16 16" version="1.1" xmlns="http://www.w3.org/2000/svg" xmlns:xlink="http://www.w3.org/1999/xlink">
    <path d="M3.5,14 L3.5,2 C3.5,1.725 3.725,1.5 4,1.5 L9,1.5 L9,4 C9,4.553125 9.446875,5 10,5 L12.5,5 L12.5,14 C12.5,14.275 12.275,14.5 12,14.5 L4,14.5 C3.725,14.5 3.5,14.275 3.5,14 Z M4,0 C2.896875,0 2,0.896875 2,2 L2,14 C2,15.103125 2.896875,16 4,16 L12,16 C13.103125,16 14,15.103125 14,14 L14,4.828125 C14,4.296875 13.790625,3.7875 13.415625,3.4125 L10.584375,0.584375 C10.209375,0.209375 9.703125,0 9.171875,0 L4,0 Z" fill="currentColor"></path>
</svg>