<?xml version="1.0" encoding="UTF-8"?>
<svg width="16px" height="16px" viewBox="0 0 16 16" version="1.1" xmlns="http://www.w3.org/2000/svg" xmlns:xlink="http://www.w3.org/1999/xlink">
    <path d="M2,2 L14,2 C14.5522847,2 15,2.44771525 15,3 C15,3.55228475 14.5522847,4 14,4 L2,4 C1.44771525,4 1,3.55228475 1,3 C1,2.44771525 1.44771525,2 2,2 Z M4,7 L12,7 C12.5522847,7 13,7.44771525 13,8 C13,8.55228475 12.5522847,9 12,9 L4,9 C3.44771525,9 3,8.55228475 3,8 C3,7.44771525 3.44771525,7 4,7 Z M7,12 L9,12 C9.55228475,12 10,12.4477153 10,13 C10,13.5522847 9.55228475,14 9,14 L7,14 C6.44771525,14 6,13.5522847 6,13 C6,12.4477153 6.44771525,12 7,12 Z" fill="currentColor"></path>
</svg>