<?xml version="1.0" encoding="UTF-8"?>
<svg width="16px" height="16px" viewBox="0 0 16 16" version="1.1" xmlns="http://www.w3.org/2000/svg" xmlns:xlink="http://www.w3.org/1999/xlink">
    <path d="M7.99999964,16 C10.8581247,16 13.4991407,14.4752083 14.9282036,12 C16.3572655,9.52479172 16.3572655,6.47520876 14.9282036,4 C13.4991407,1.52479172 10.8581247,0 7.99999964,0 C5.14187527,0 2.50085878,1.52479172 1.07179642,4 C-0.357265949,6.47520876 -0.357265949,9.52479172 1.07179642,12 C2.50085878,14.4752083 5.14187527,16 7.99999964,16 Z M8.64999962,4.17500019 L8.64999962,4.61874962 C8.953125,4.65625 9.25624943,4.74062538 9.55624962,4.82500076 C9.61562443,4.84062576 9.671875,4.85625076 9.73124981,4.875 C10.0906248,4.97500038 10.3031244,5.34687614 10.203125,5.70625114 C10.1031256,6.06562567 9.73124981,6.27500057 9.37187481,6.17812586 C9.32187462,6.16562605 9.27499962,6.15000105 9.22499943,6.13750076 C9.00624943,6.07500076 8.78749943,6.01562595 8.56562424,5.97187614 C8.15312386,5.89375114 7.67499924,5.93125057 7.29062414,6.09687567 C6.94687414,6.24687576 6.66249895,6.60937548 7.05312395,6.85937548 C7.35937405,7.05625057 7.73437405,7.15625048 8.09062386,7.25312567 C8.16562366,7.27187586 8.23749924,7.29375076 8.30937386,7.31250048 C8.79687405,7.45000029 9.41874886,7.62812567 9.88437366,7.94687557 C10.4906235,8.36250019 10.7749987,9.03750038 10.640624,9.76250076 C10.5124989,10.4625006 10.0249987,10.921876 9.44062424,11.1593761 C9.19687462,11.2593765 8.93124962,11.3218765 8.65312386,11.3531265 L8.65312386,11.8281269 C8.65312386,12.2000017 8.34999847,12.5031271 7.97812366,12.5031271 C7.60624886,12.5031271 7.30312347,12.2000017 7.30312347,11.8281269 L7.30312347,11.2843771 C6.84999847,11.1812525 6.40624857,11.0375023 5.96562338,10.8937521 C5.61249828,10.7781267 5.41874838,10.3937521 5.53749847,10.0406275 C5.65624857,9.68750286 6.03749847,9.49375248 6.39062357,9.6125021 C6.46874857,9.63750172 6.54687357,9.66562748 6.62499857,9.6906271 C6.97812366,9.80937672 7.34062338,9.93125248 7.70312357,9.99062729 C8.23437309,10.0687523 8.65937328,10.0218773 8.93749809,9.9093771 C9.31249809,9.75937748 9.49062347,9.31250191 9.1218729,9.06250191 C8.80624771,8.8468771 8.41562271,8.74062729 8.0437479,8.64062691 C7.97187281,8.62187672 7.9031229,8.60312653 7.83124781,8.5812521 C7.35937262,8.44687748 6.76874781,8.28125191 6.3249979,7.99687719 C5.7156229,7.60625219 5.40624809,6.9562521 5.537498,6.23437691 C5.662498,5.55312729 6.193748,5.10000229 6.756248,4.85625172 C6.928123,4.78125191 7.11249781,4.72187614 7.303123,4.67812729 L7.303123,4.17500019 C7.303123,3.80312538 7.6062479,3.5 7.97812319,3.5 C8.34999847,3.5 8.6531229,3.80312538 8.6531229,4.17500019 L8.64999962,4.17500019 Z" fill="currentColor"></path>
</svg>