<?xml version="1.0" encoding="UTF-8"?>
<svg width="16px" height="16px" viewBox="0 0 16 16" version="1.1" xmlns="http://www.w3.org/2000/svg" xmlns:xlink="http://www.w3.org/1999/xlink">
    <path d="M13.9175257,3.99472675 C14.5151417,3.99472675 15,4.47785834 15,5.07334612 L15,14.4213806 C15,15.0168684 14.5151417,15.5 13.9175257,15.5 L10.3092781,15.5 C9.71166205,15.5 9.22680377,15.0168684 9.22680377,14.4213806 L9.22680377,13.3427613 L11.0309276,13.3427613 C11.2293813,13.3427613 11.3917524,13.1809681 11.3917524,12.9832215 C11.3917524,12.7854749 11.2293813,12.6236817 11.0309276,12.6236817 L9.22680377,12.6236817 L9.22680377,11.1855225 L11.0309276,11.1855225 C11.2293813,11.1855225 11.3917524,11.0237294 11.3917524,10.8259827 C11.3917524,10.6282361 11.2293813,10.466443 11.0309276,10.466443 L9.22680377,10.466443 L9.22680377,9.0282838 L11.0309276,9.0282838 C11.2293813,9.0282838 11.3917524,8.86649096 11.3917524,8.66874401 C11.3917524,8.47099706 11.2293813,8.30920422 11.0309276,8.30920422 L9.22680377,8.30920422 L9.22680377,6.87104506 L11.0309276,6.87104506 C11.2293813,6.87104506 11.3917524,6.70925188 11.3917524,6.51150527 C11.3917524,6.31375866 11.2293813,6.15196548 11.0309276,6.15196548 L9.22680377,6.15196548 L9.22680377,5.07334612 C9.22680377,4.47785834 9.71166205,3.99472675 10.3092781,3.99472675 L13.9175257,3.99472675 Z M6.43774179,0.5 C6.70836053,0.5 6.95924633,0.617974336 7.12838294,0.828642181 L7.20918875,0.93076636 C7.65546943,1.49678266 8.47457581,2.5680106 9.30025767,3.81045951 C9.01087627,4.01958756 8.82268003,4.35917901 8.82268003,4.74256951 L8.82265783,5.57615886 L8.76646151,5.48462334 L8.7098104,5.39311216 C7.89513591,4.07854429 6.99025488,2.85667079 6.41237147,2.10669378 L6.34149556,2.19924251 C5.76245841,2.95715783 4.8997264,4.13112701 4.11493254,5.39311216 C3.6103414,6.20488499 3.15649133,7.02508505 2.83231283,7.77225384 L2.81159608,7.82044768 C2.49093043,8.57141298 2.35309201,9.13094458 2.35309201,9.48849473 C2.35309201,11.7215739 4.17131055,13.5333174 6.41237147,13.5333174 C7.31473721,13.5333174 8.14854847,13.2395829 8.82271354,12.7428813 L8.82268535,14.3181781 C8.0967682,14.6787508 7.27824026,14.8815916 6.41237147,14.8815916 C3.42429139,14.8815916 1,12.4659336 1,9.48849473 C1,6.92677382 4.67026431,2.1207383 5.69635957,0.828642181 C5.86549617,0.617974336 6.11638197,0.5 6.38700072,0.5 L6.43774179,0.5 Z M4.38273217,8.58964525 C4.75390254,8.58964525 5.05323873,8.88421738 5.05918834,9.25259698 L5.0592786,9.26378236 C5.0592786,10.1230542 5.75275324,10.8226519 6.61180494,10.836558 L6.63788694,10.8367689 C7.01280651,10.8367689 7.31443338,11.1373221 7.31443338,11.510906 C7.31443338,11.88449 7.01280651,12.1850431 6.63788694,12.1850431 C5.01981356,12.1850431 3.70618573,10.8760934 3.70618573,9.26378236 C3.70618573,8.89019839 4.0078126,8.58964525 4.38273217,8.58964525 Z M13.8020618,4.88638543 L10.4150829,4.88638543 C10.2570384,4.88992494 10.1216492,5.03007416 10.1216492,5.18839885 L10.1216492,5.26030681 L11.0309276,5.26030681 C11.7235908,5.26030681 12.2865978,5.82130919 12.2865978,6.51150527 L12.2864293,6.53217197 C12.2814196,6.83925684 12.1649696,7.11970972 11.9756863,7.33506098 C11.9182246,7.40043626 11.8153064,7.48545748 11.6669318,7.59012464 C11.7223149,7.62050236 11.7749183,7.65642705 11.8247421,7.69789872 C11.8745658,7.73937039 11.919529,7.78118931 11.9596315,7.82335547 C12.0341682,7.81885928 12.409377,7.54532936 12.9694707,7.75691926 L12.9864997,7.76348035 C13.3661744,7.91261654 13.7390593,7.91261654 14.1051546,7.76348035 L14.1051546,5.18839885 C14.1051546,5.0278342 13.9632003,4.88638543 13.8020618,4.88638543 Z" fill="currentColor"></path>
</svg>