<?xml version="1.0" encoding="UTF-8"?>
<svg width="16px" height="16px" viewBox="0 0 16 16" version="1.1" xmlns="http://www.w3.org/2000/svg" xmlns:xlink="http://www.w3.org/1999/xlink">
  <path d="M8.05769222,2.35898471 L8.05769222,13.6875 L3.68269222,13.6875 L3.68269222,3.53749967 L8.05769222,2.35898471 Z M9.37019222,2.15937483 C9.37019222,1.51953125 8.85066097,1 8.21081739,1 C8.10964518,1 8.00847381,1.01367188 7.91003614,1.04101562 L3.34089535,2.26874983 C2.76941072,2.42460954 2.37019181,2.94414079 2.37019181,3.53749967 L2.37019181,13.6875 L1.65625,13.6875 C1.29257804,13.6875 1,14.015625 1,14.34375 C1,14.671875 1.29257804,15 1.65625,15 L2.37019181,15 L3.24519181,15 L3.68269181,15 L8.05769181,15 L9.37019222,15 L9.37019222,13.6875 L9.37019222,2.15937483 Z M6.74519181,8.875 C7.10612922,8.875 7.40144181,8.48125017 7.40144181,8 C7.40144181,7.51874983 7.10612922,7.125 6.74519181,7.125 C6.38425439,7.125 6.08894181,7.51874983 6.08894181,8 C6.08894181,8.48125017 6.38151985,8.875 6.74519181,8.875 Z M10.2201922,4.0625 L12.0639422,4.0625 C12.1842546,4.0625 12.2826922,4.16093767 12.2826922,4.28125 L12.2826922,14.34375 C12.2826922,14.7074215 12.5752707,15 12.9389422,15 L14.3098678,15 C14.6735393,15 14.9661178,14.671875 14.9661178,14.34375 C14.9661178,14.015625 14.6735393,13.6875 14.3098678,13.6875 L13.5951922,13.6875 L13.5951922,4.28125 C13.5951922,3.43632829 12.9088639,2.75 12.0639422,2.75 L10.2201922,2.75 L10.2201922,4.0625 Z" fill="currentColor"></path>
</svg>
