<?xml version="1.0" encoding="UTF-8"?>
<svg width="16px" height="16px" viewBox="0 0 16 16" version="1.1" xmlns="http://www.w3.org/2000/svg" xmlns:xlink="http://www.w3.org/1999/xlink">
    <path d="M10.5841674,5.81465538 C10.514109,5.3516751 10.6830167,4.90195379 11.105075,4.64668459 L11.1493646,4.62072204 C11.8665783,4.21367573 12.290867,4.62420961 13.8940137,3.52293578 C14.2027946,5.42654477 13.0709161,6.65048567 11.4975974,6.43397534 L11.435532,6.42482879 C11.1030312,6.37285727 10.6500223,6.24985685 10.5841674,5.81465538 Z M9.43301362,8.20513847 C9.51141557,7.87715792 9.64113631,7.57008645 9.94422955,7.28799325 C10.24171,7.01112399 10.7077468,6.81334341 11.4121722,7.02675958 L11.4523004,7.03928113 C12.0128941,7.22038016 12.6077171,7.10174405 13.2813811,6.91137934 C13.1664764,8.32735106 11.3709084,9.69865781 10.0494522,9.18715438 C9.49296815,8.97157385 9.35461168,8.53311901 9.43301362,8.20513847 Z M7.19994532,10.9726725 C7.24253142,10.4700851 7.41232533,10.2797988 7.65725947,9.99088257 C7.89789651,9.70703502 8.59123129,9.57125772 9.23559367,9.81330801 L9.27006338,9.82663774 C9.79904079,10.0373327 10.3322208,10.0869878 11.1559633,9.99088257 C10.7334105,11.3240342 9.30868379,12.2346334 8.14919753,11.9997573 C7.27997602,11.822991 7.15735922,11.47526 7.19994532,10.9726725 Z M5.1255661,12.6088975 C5.23072696,12.4069436 5.56507575,12.1339025 5.82627038,12.0095781 L5.85504812,11.9962689 C6.11622822,11.8790284 6.56163718,11.7763602 7.13932063,12.1630831 L7.17216061,12.1854989 C7.63282044,12.5095156 8.15030734,12.5138322 8.95412844,12.6088975 C8.55378498,14.002002 6.37232805,14.7588571 5.29825251,13.82789 C4.81432448,13.4202468 5.02040524,12.8108514 5.1255661,12.6088975 Z M3.92759429,12.9173458 L3.83453784,12.9173458 C3.51038055,12.9149162 3.10516859,12.8664645 2.87526149,12.0839555 C2.58032725,11.080121 3.04441887,9.79205645 4.22442039,8.95412844 L4.2427669,9.06415943 C4.44968354,10.2785571 4.62414773,10.4000566 4.96020844,11.080121 C5.30615329,11.7801872 5.08125777,12.1305572 4.83531371,12.4531051 C4.58936965,12.7756529 4.26339817,12.9173458 3.92759429,12.9173458 Z M7.21811133,8.86001923 C7.39334449,9.38879572 7.3561106,9.60196373 7.24901345,9.98203306 C7.14191631,10.3621024 6.81943079,10.6322258 6.38757319,10.7013116 L6.35523316,10.7059642 C5.91436579,10.7625001 5.09517584,10.5937681 4.90046285,9.56200919 C4.70789482,8.54382774 4.98612151,7.42140646 6.07817474,6.60550459 C6.38757319,8.39297676 7.04287818,8.33124274 7.21811133,8.86001923 Z M8.84012948,6.20950542 C9.28757123,6.62646417 9.2896688,7.1103882 9.20386284,7.51342784 C9.11805688,7.91646749 8.92571209,8.11203569 8.56894148,8.29116975 C8.21217087,8.47030382 7.4236795,8.38665273 7.01547239,7.43521465 C6.57561718,6.40936535 6.64603735,5.57348878 7.5412316,4.40366972 L7.58329653,4.49519967 C8.25251,5.94189648 8.40172696,5.80097008 8.84012948,6.20950542 Z M10.3949759,4.00797584 C10.4805645,4.53502514 10.3757398,5.02585149 9.89613516,5.2998749 C9.41653057,5.57389831 8.76871134,5.37531524 8.52750211,5.10385383 C7.55375086,4.00797584 8.2891067,2.43453336 9.38605307,1.6146789 C9.67857463,3.18573943 10.3093873,3.48092655 10.3949759,4.00797584 Z M12.7416698,2.72765074 C12.4969488,3.18076079 11.9375391,3.73534574 11.350123,3.63530934 C10.762707,3.53527294 10.4589866,2.78392987 10.3755549,2.25853796 C10.2879876,1.70689444 10.5699291,1.07757486 10.7723947,0.503455645 C9.90751044,0.183581514 8.97645616,0 7.99991008,0 C3.58180776,0 0,3.58190706 0,8.00008992 C0,10.4676254 1.11861239,12.6740142 2.87570897,14.1414557 L2.92043119,14.1026589 C3.23657304,13.8222605 3.61331143,13.3666332 3.78498047,13.3666332 C3.96482422,13.3666332 4.11199219,13.5108975 4.11199219,13.6695951 C4.11199219,13.8245142 3.7282479,14.1474481 3.42546161,14.4475138 L3.38995425,14.4830651 C3.38159829,14.4919808 3.37525635,14.500597 3.37525635,14.5092393 C3.37525635,14.5222029 3.40062157,14.537448 3.41980371,14.5508954 C4.71801211,15.4609866 6.29444219,16 7.99991008,16 C12.4180124,16 16,12.4177334 16,8.00008992 C16,5.46249367 14.8154142,3.20575379 12.9730848,1.74033825 C12.9534855,2.0983312 12.8955868,2.44391751 12.7416698,2.72765074 Z" fill="currentColor"></path>
</svg>