<svg width="16px" height="16px" viewBox="0 0 16 16">
    <path d="M4.75,3.5 L4.75,5.75 L8.09921875,5.75 L6.59921875,3.5 L4.75,3.5 Z M10,6.46484375 L10,6.875 L10,7.25 L10,8.375 C10,8.99609375 9.49609375,9.5 8.875,9.5 L1.125,9.5 C0.50390625,9.5 0,8.99609375 0,8.375 L0,6.875 C0,6.25390625 0.50390625,5.75 1.125,5.75 L3.25,5.75 L3.25,3.125 C3.25,2.50390625 3.75390625,2 4.375,2 L6.59921875,2 C7.10078125,2 7.56953125,2.25078125 7.8484375,2.66796875 L9.6859375,5.4265625 C9.8921875,5.73359375 10,6.096875 10,6.4671875 L10,6.46484375 Z M1.875,11.75 C1.66875,11.75 1.5,11.91875 1.5,12.125 C1.5,12.33125 1.66875,12.5 1.875,12.5 L8.875,12.5 C9.08125,12.5 9.25,12.33125 9.25,12.125 C9.25,11.91875 9.08125,11.75 8.875,11.75 L1.875,11.75 Z M0,12.125 C0,11.0890625 0.8390625,10.25 1.875,10.25 L8.875,10.25 C9.9109375,10.25 10.75,11.0890625 10.75,12.125 C10.75,13.1609375 9.9109375,14 8.875,14 L1.875,14 C0.8390625,14 0,13.1609375 0,12.125 Z M16,9.5 L16,11 L16,12.125 C16,13.1609375 15.1609375,14 14.125,14 L12.2945313,14 C11.85625,14 11.5,13.64375 11.5,13.2054688 C11.5,12.9945313 11.584375,12.7929688 11.7320312,12.6429688 L14.5,9.875 L14.5,5 L10.75,8.75 L10.75,5.75 L14.1882813,2.31171875 C14.3875,2.1125 14.6570313,2 14.9382812,2 C15.5242187,2 16,2.47578125 16,3.06171875 L16,9.5 Z" fill="currentColor"></path>
</svg>