<?xml version="1.0" encoding="UTF-8"?>
<svg width="16px" height="16px" viewBox="0 0 16 16" version="1.1" xmlns="http://www.w3.org/2000/svg" xmlns:xlink="http://www.w3.org/1999/xlink">
  <path d="M8.07438867,1 C7.59040437,1 7.19938867,1.39101529 7.19938867,1.875 L7.19938867,2.36445296 C5.21696679,2.67890608 3.69938867,4.39609408 3.69938867,6.46875 L3.69938867,7.38203108 C3.69938867,8.62343717 3.27556054,9.82929671 2.50173233,10.7972653 L2.09431062,11.3085938 C1.93571679,11.5054691 1.9056385,11.776172 2.0150135,12.0031248 C2.1243885,12.2300776 2.35407583,12.375 2.60563825,12.375 L13.5431382,12.375 C13.7947011,12.375 14.0243884,12.2300785 14.1337634,12.0031248 C14.2431384,11.7761712 14.2130601,11.5054682 14.0544667,11.3085938 L13.647045,10.7999998 C12.8732164,9.82929671 12.4493882,8.62343717 12.4493882,7.38203108 L12.4493882,6.46875 C12.4493882,4.39609408 10.9318101,2.67890608 8.94938825,2.36445296 L8.94938825,1.875 C8.94938825,1.39101529 8.55837254,1 8.07438825,1 L8.07438867,1 Z M8.07438825,3.625 L8.29313825,3.625 C9.86266933,3.625 11.1368882,4.89921892 11.1368882,6.46875 L11.1368882,7.38203108 C11.1368882,8.69179654 11.5169662,9.96875 12.2224355,11.0625 L3.92634104,11.0625 C4.63180987,9.96875 5.01188825,8.69179654 5.01188825,7.38203108 L5.01188825,6.46875 C5.01188825,4.89921892 6.28610717,3.625 7.85563825,3.625 L8.07438825,3.625 Z M9.82438825,13.25 L8.07438825,13.25 L6.32438825,13.25 C6.32438825,13.7148438 6.50759129,14.1605465 6.83571629,14.4886715 C7.16384129,14.8167965 7.6095445,15 8.07438825,15 C8.539232,15 8.98493479,14.8167965 9.31305979,14.4886715 C9.64118479,14.1605465 9.82438825,13.7148438 9.82438825,13.25 Z" fill="currentColor"></path>
</svg>
