<?xml version="1.0" encoding="UTF-8"?>
<svg width="16px" height="16px" viewBox="0 0 16 16" version="1.1" xmlns="http://www.w3.org/2000/svg" xmlns:xlink="http://www.w3.org/1999/xlink">
    <path d="M9.171875,0 C9.703125,0 10.209375,0.209375 10.584375,0.584375 L13.415625,3.4125 C13.790625,3.7875 14,4.296875 14,4.828125 L14.0010701,6.88290542 C14.3073236,7.15753538 14.5,7.55626669 14.5,8 L14.5,11 C14.5,11.4437333 14.3073236,11.8424646 14.0010701,12.1170946 L14,14 C14,15.103125 13.103125,16 12,16 L4,16 C2.896875,16 2,15.103125 2,14 L1.99990047,12.1179642 C1.69308356,11.8433067 1.5,11.4442019 1.5,11 L1.5,8 C1.5,7.55579813 1.69308356,7.15669333 1.99990047,6.88203584 L2,2 C2,0.896875 2.896875,0 4,0 L9.171875,0 Z M12.5,12.5 L3.5,12.5 L3.5,14 C3.5,14.2444444 3.67777778,14.4493827 3.91042524,14.4919067 L4,14.5 L12,14.5 C12.275,14.5 12.5,14.275 12.5,14 L12.5,12.5 Z M5.03772362,7.75 L3.99468499,7.75 C3.67967332,7.75 3.5,7.94073569 3.5,8.27929155 L3.5,10.7207084 C3.5,11.0592643 3.67967332,11.25 3.99468499,11.25 C4.30969666,11.25 4.48936998,11.0592643 4.48936998,10.7207084 L4.48936998,10.2510218 L4.97005445,10.2510218 C5.7564169,10.2510218 6.29077003,9.76226158 6.29077003,9.00408719 C6.29077003,8.23876022 5.78675136,7.75 5.03772362,7.75 Z M12.0636505,7.75 L10.581929,7.75 C10.2669173,7.75 10.087244,7.94073569 10.087244,8.27929155 L10.087244,10.7207084 C10.087244,11.0592643 10.2669173,11.25 10.581929,11.25 C10.8969406,11.25 11.0766139,11.0592643 11.0766139,10.7207084 L11.0766139,9.97207084 L11.9633135,9.97207084 C12.2153228,9.97207084 12.3693285,9.83378747 12.3693285,9.59298365 C12.3693285,9.35217984 12.210656,9.21389646 11.9633135,9.21389646 L11.0766139,9.21389646 L11.0766139,8.55585831 L12.0636505,8.55585831 C12.3249935,8.55585831 12.5,8.41042234 12.5,8.15292916 C12.5,7.89543597 12.3296604,7.75 12.0636505,7.75 Z M8.08050298,7.75 L7.13546798,7.75 C6.82045631,7.75 6.64078299,7.94073569 6.64078299,8.27929155 L6.64078299,10.6611035 C6.64078299,10.9996594 6.82045631,11.1903951 7.13546798,11.1903951 L8.08050298,11.1903951 C9.10020742,11.1903951 9.70222971,10.5466621 9.70222971,9.44516349 C9.70222971,8.34366485 9.10254083,7.75 8.08050298,7.75 Z M7.9404978,8.55347411 C8.41418201,8.55347411 8.69419238,8.86580381 8.69419238,9.44516349 C8.69419238,10.0793597 8.43518278,10.386921 7.9404978,10.386921 L7.63015297,10.386921 L7.63015297,8.55347411 L7.9404978,8.55347411 Z M4.77404719,8.51055858 C5.09605911,8.51055858 5.29206637,8.67983651 5.29206637,9.00647139 C5.29206637,9.33549046 5.09605911,9.50476839 4.76704693,9.50476839 L4.48936998,9.50476839 L4.48936998,8.51055858 L4.77404719,8.51055858 Z M9,1.5 L4,1.5 C3.725,1.5 3.5,1.725 3.5,2 L3.5,6.5 L12.5,6.5 L12.5,5 L10,5 C9.446875,5 9,4.553125 9,4 L9,1.5 Z" fill="currentColor"></path>
</svg>