<?xml version="1.0" encoding="UTF-8"?>
<svg width="16px" height="16px" viewBox="0 0 16 16" version="1.1" xmlns="http://www.w3.org/2000/svg" xmlns:xlink="http://www.w3.org/1999/xlink">
    <path d="M1,1 C1.5531249,1 2,1.44687462 2,2 L2,12.5 C2,12.7749996 2.2249999,13 2.5,13 L15,13 C15.5531254,13 16,13.4468746 16,14 C16,14.5531254 15.5531254,15 15,15 L2.5,15 C1.1187501,15 0,13.8812504 0,12.5 L0,2 C0,1.44687462 0.446875095,1 1,1 Z M5,7 C5.5531249,7 6,7.4468751 6,8 L6,10 C6,10.5531254 5.5531249,11 5,11 C4.4468751,11 4,10.5531254 4,10 L4,8 C4,7.4468751 4.4468751,7 5,7 Z M9,5 L9,10 C9,10.5531254 8.55312538,11 8,11 C7.44687462,11 7,10.5531254 7,10 L7,5 C7,4.44687462 7.4468751,4 8,4 C8.55312538,4 9,4.44687462 9,5 Z M11,6 C11.5531254,6 12,6.4468751 12,7 L12,10 C12,10.5531254 11.5531254,11 11,11 C10.4468746,11 10,10.5531254 10,10 L10,7 C10,6.4468751 10.4468746,6 11,6 Z M15,3 L15,10 C15,10.5531254 14.5531254,11 14,11 C13.4468746,11 13,10.5531254 13,10 L13,3 C13,2.44687462 13.4468746,2 14,2 C14.5531254,2 15,2.44687462 15,3 Z" fill="currentColor"></path>
</svg>