<?xml version="1.0" encoding="UTF-8"?>
<svg width="16px" height="16px" viewBox="0 0 16 16" version="1.1" xmlns="http://www.w3.org/2000/svg" xmlns:xlink="http://www.w3.org/1999/xlink">
    <path d="M0.75,1 C1.1656251,1 1.5,1.33437538 1.5,1.75 L1.5,12.75 C1.5,13.1656246 1.8343749,13.5 2.25,13.5 L15.25,13.5 C15.6656246,13.5 16,13.8343754 16,14.25 C16,14.6656246 15.6656246,15 15.25,15 L2.25,15 C1.0062499,15 0,13.9937496 0,12.75 L0,1.75 C0,1.33437538 0.334374905,1 0.75,1 Z M5.25,7 C5.6656251,7 6,7.3343749 6,7.75 L6,10.25 C6,10.6656246 5.6656251,11 5.25,11 C4.8343749,11 4.5,10.6656246 4.5,10.25 L4.5,7.75 C4.5,7.3343749 4.8343749,7 5.25,7 Z M9,4.75 L9,10.25 C9,10.6656246 8.66562462,11 8.25,11 C7.83437538,11 7.5,10.6656246 7.5,10.25 L7.5,4.75 C7.5,4.33437538 7.8343749,4 8.25,4 C8.66562462,4 9,4.33437538 9,4.75 Z M11.25,6 C11.6656246,6 12,6.3343749 12,6.75 L12,10.25 C12,10.6656246 11.6656246,11 11.25,11 C10.8343754,11 10.5,10.6656246 10.5,10.25 L10.5,6.75 C10.5,6.3343749 10.8343754,6 11.25,6 Z M15,2.75 L15,10.25 C15,10.6656246 14.6656246,11 14.25,11 C13.8343754,11 13.5,10.6656246 13.5,10.25 L13.5,2.75 C13.5,2.33437538 13.8343754,2 14.25,2 C14.6656246,2 15,2.33437538 15,2.75 Z" fill="currentColor"></path>
</svg>