<?xml version="1.0" encoding="UTF-8"?>
<svg width="16px" height="16px" viewBox="0 0 16 16" version="1.1" xmlns="http://www.w3.org/2000/svg" xmlns:xlink="http://www.w3.org/1999/xlink">
    <path d="M4.57428126,1.26285175 C4.98140025,0.889659343 5.61396762,0.917162272 5.98716003,1.32428126 L11.48716,7.32428126 L11.5020059,7.34200589 L11.5129327,7.35335669 L11.5360059,7.38500589 L11.566178,7.42201317 L11.5750059,7.43700589 L11.5865998,7.45174616 L11.6060059,7.48600589 L11.6310277,7.5264251 L11.6390059,7.54400589 L11.6466744,7.5566961 L11.6670059,7.60600589 L11.6817666,7.63619302 L11.6930987,7.66688247 L11.7060059,7.71300589 L11.7184524,7.74999287 L11.7220059,7.76900589 L11.7258152,7.78098121 L11.7290059,7.80600589 L11.7411426,7.8665006 L11.7420059,7.88800589 L11.7450059,7.93200589 L11.7498947,7.98439216 L11.7480059,7.99900589 L11.7498947,8.01561962 L11.7450059,8.06700589 L11.7447664,8.1023435 L11.7420059,8.11100589 L11.7411426,8.13351118 L11.7290059,8.19200589 L11.7258152,8.21903057 L11.7220059,8.23000589 L11.7184524,8.25001891 L11.7060059,8.28600589 L11.6930987,8.33312931 L11.6840059,8.35500589 L11.6670059,8.39300589 L11.6466744,8.44331568 L11.6390059,8.45500589 L11.6310277,8.47358668 L11.6060059,8.51300589 L11.5865998,8.54826563 L11.5750059,8.56200589 L11.566178,8.57799862 L11.5360059,8.61400589 L11.5129327,8.64665509 L11.5020059,8.65700589 L11.48716,8.67573052 L5.98716003,14.6757305 C5.61396762,15.0828495 4.98140025,15.1103524 4.57428126,14.73716 C4.16716227,14.3639676 4.13965934,13.7314003 4.51285175,13.3242813 L9.39300589,8 L4.51285175,2.67573052 C4.16836645,2.29992837 4.16530203,1.7320282 4.48707907,1.35335669 L4.57428126,1.26285175 Z" fill="currentColor"></path>
</svg>