<?xml version="1.0" encoding="UTF-8"?>
<svg width="16px" height="16px" viewBox="0 0 16 16" version="1.1" xmlns="http://www.w3.org/2000/svg" xmlns:xlink="http://www.w3.org/1999/xlink">
    <path d="M10.2928932,3.29289322 C10.6834175,2.90236893 11.3165825,2.90236893 11.7071068,3.29289322 L15.7071068,7.29289322 C15.7329588,7.31874528 15.757402,7.34600622 15.7803112,7.37455101 L15.786,7.383 L15.802,7.405 L15.844312,7.46391182 L15.853,7.479 L15.8596192,7.48859705 L15.874,7.516 L15.8983588,7.56022533 L15.905,7.577 L15.9150783,7.59605741 L15.927,7.629 L15.9417014,7.66274122 L15.949,7.688 L15.9566726,7.70815633 L15.962,7.734 L15.9735893,7.77070917 L15.978,7.799 L15.9844021,7.82356849 L15.987,7.851 L15.9932723,7.88337887 L15.995,7.913 L15.9982669,7.94096861 L15.998,7.967 L16,8 L15.998,8.033 L15.9982669,8.05903139 L15.995,8.085 L15.9932723,8.11662113 L15.987,8.148 L15.9844021,8.17643151 L15.978,8.2 L15.9735893,8.22929083 L15.962,8.265 L15.9566726,8.29184367 L15.949,8.311 L15.9417014,8.33725878 L15.927,8.37 L15.9150783,8.40394259 L15.905,8.422 L15.8983588,8.43977467 L15.874,8.483 L15.8596192,8.51140295 L15.853,8.52 L15.844312,8.53608818 L15.802,8.594 L15.7902954,8.61289944 L15.786,8.616 L15.7803112,8.62544899 L15.7071068,8.70710678 L11.7071068,12.7071068 C11.3165825,13.0976311 10.6834175,13.0976311 10.2928932,12.7071068 C9.90236893,12.3165825 9.90236893,11.6834175 10.2928932,11.2928932 L12.584,9 L1,9 C0.487164161,9 0.0644928393,8.61395981 0.00672773133,8.11662113 L0,8 C0,7.44771525 0.44771525,7 1,7 L12.585,7 L10.2928932,4.70710678 C9.93240926,4.34662282 9.90467972,3.77939176 10.2097046,3.38710056 L10.2928932,3.29289322 Z" fill="currentColor"></path>
</svg>