<?xml version="1.0" encoding="UTF-8"?>
<svg width="16px" height="16px" viewBox="0 0 16 16" version="1.1" xmlns="http://www.w3.org/2000/svg" xmlns:xlink="http://www.w3.org/1999/xlink">
    <path d="M3.5,0.5 C5.43299662,0.5 7,2.06700338 7,4 C7,5.93299662 5.43299662,7.5 3.5,7.5 C1.56700338,7.5 0,5.93299662 0,4 C0,2.06700338 1.56700338,0.5 3.5,0.5 Z M5.40285201,2.25112788 C5.19349326,2.07373973 4.88357199,2.10401373 4.71062346,2.31874675 L2.59748341,4.94238508 L1.82643081,3.79802329 C1.67204777,3.56888721 1.36579303,3.51150057 1.1423917,3.66984664 C0.918990366,3.82819271 0.863039981,4.14230906 1.01742302,4.37144513 L2.14699112,6.04795581 L2.17284705,6.08301087 L2.21097473,6.12514669 C2.22367096,6.13860466 2.23722619,6.15147675 2.25163304,6.16368357 C2.46099179,6.34107172 2.77091306,6.31079771 2.94386159,6.0960647 L5.46877854,2.96112604 C5.64172706,2.74639302 5.61221075,2.42851602 5.40285201,2.25112788 Z M8.72115385,3.38461538 L15.2788462,3.38461538 C15.6771284,3.38461538 16,3.70748696 16,4.10576923 C16,4.5040515 15.6771284,4.82692308 15.2788462,4.82692308 L8.72115385,4.82692308 C8.32287157,4.82692308 8,4.5040515 8,4.10576923 C8,3.70748696 8.32287157,3.38461538 8.72115385,3.38461538 Z M8.72115385,11.4615385 L15.2788462,11.4615385 C15.6771284,11.4615385 16,11.78441 16,12.1826923 C16,12.5809746 15.6771284,12.9038462 15.2788462,12.9038462 L8.72115385,12.9038462 C8.32287157,12.9038462 8,12.5809746 8,12.1826923 C8,11.78441 8.32287157,11.4615385 8.72115385,11.4615385 Z M3.5,8.5 C5.43299662,8.5 7,10.0670034 7,12 C7,13.9329966 5.43299662,15.5 3.5,15.5 C1.56700338,15.5 0,13.9329966 0,12 C0,10.0670034 1.56700338,8.5 3.5,8.5 Z M3.5,9.75 C2.25735931,9.75 1.25,10.7573593 1.25,12 C1.25,13.2426407 2.25735931,14.25 3.5,14.25 C4.74264069,14.25 5.75,13.2426407 5.75,12 C5.75,10.7573593 4.74264069,9.75 3.5,9.75 Z" fill="currentColor"></path>
</svg>