<?xml version="1.0" encoding="UTF-8"?>
<svg width="16px" height="16px" viewBox="0 0 16 16" version="1.1" xmlns="http://www.w3.org/2000/svg" xmlns:xlink="http://www.w3.org/1999/xlink">
  <path d="M10.0833333,2 C9.87239583,2.37767857 9.75,2.81696429 9.75,3.28571429 L9.75,3.5 L1.5,3.5 L1.5,10 L9.75,10 L9.75,11.4285714 L1.66666667,11.4285714 C0.747395833,11.4285714 -5.89750471e-13,10.6598214 -5.89750471e-13,9.71428571 L-5.89750471e-13,3.71428571 C-5.89750471e-13,2.76875 0.747395833,2 1.66666667,2 L10.0833333,2 Z M9.75,12.7142857 C9.75,13.1830357 9.87239583,13.6223214 10.0833333,14 L3.125,14 C2.77864583,14 2.5,13.7133929 2.5,13.3571429 C2.5,13.0008929 2.77864583,12.7142857 3.125,12.7142857 L9.75,12.7142857 Z M12.25,2 L14.75,2 C15.4401042,2 16,2.57589286 16,3.28571429 L16,12.7142857 C16,13.4241071 15.4401042,14 14.75,14 L12.25,14 C11.5598958,14 11,13.4241071 11,12.7142857 L11,3.28571429 C11,2.57589286 11.5598958,2 12.25,2 Z M12.875,3.71428571 C12.5286458,3.71428571 12.25,4.00089286 12.25,4.35714286 C12.25,4.71339286 12.5286458,5 12.875,5 L14.125,5 C14.4713542,5 14.75,4.71339286 14.75,4.35714286 C14.75,4.00089286 14.4713542,3.71428571 14.125,3.71428571 L12.875,3.71428571 Z M12.875,6.28571429 C12.5286458,6.28571429 12.25,6.57232143 12.25,6.92857143 C12.25,7.28482143 12.5286458,7.57142857 12.875,7.57142857 L14.125,7.57142857 C14.4713542,7.57142857 14.75,7.28482143 14.75,6.92857143 C14.75,6.57232143 14.4713542,6.28571429 14.125,6.28571429 L12.875,6.28571429 Z M14.3333333,10.1428571 C14.3333333,9.66875 13.9609375,9.28571429 13.5,9.28571429 C13.0390625,9.28571429 12.6666667,9.66875 12.6666667,10.1428571 C12.6666667,10.6169643 13.0390625,11 13.5,11 C13.9609375,11 14.3333333,10.6169643 14.3333333,10.1428571 Z" fill="currentColor"></path>
</svg>
