<?xml version="1.0" encoding="UTF-8"?>
<svg width="16px" height="16px" viewBox="0 0 16 16" version="1.1" xmlns="http://www.w3.org/2000/svg" xmlns:xlink="http://www.w3.org/1999/xlink">
  <path d="M8,1.05 C8.46484375,1.05 8.91875017,1.09648471 9.36171842,1.18124967 C9.57773387,1.22226529 9.95781183,1.34804671 10.1656245,1.73085921 C10.220312,1.83203142 10.2640622,1.93867188 10.2914059,2.05351596 L10.5457025,3.10625033 C10.5839844,3.26484375 10.8519528,3.42070346 11.0078125,3.37421875 L12.046875,3.06796842 C12.15625,3.03515642 12.2683595,3.01875 12.3804691,3.01601546 C12.8207036,3.00234358 13.1187503,3.27304654 13.2636719,3.43710904 C13.8679689,4.12343733 14.3328127,4.93007796 14.6281248,5.79687517 C14.6992188,6.00468783 14.78125,6.392969 14.5542964,6.76484375 C14.4941398,6.86328142 14.4203122,6.95625 14.3355464,7.03828125 L13.5507813,7.78476571 C13.4359372,7.89414071 13.4359372,8.20859342 13.5507813,8.31796842 L14.3355472,9.06445246 C14.420313,9.14648371 14.4941406,9.23945229 14.5542972,9.33788996 C14.7785163,9.70976512 14.696485,10.0980459 14.6281257,10.3058585 C14.3328135,11.1726557 13.8679698,11.9765618 13.2636727,12.6656247 C13.1187512,12.8296872 12.8179699,13.1003901 12.3804699,13.0867182 C12.2683604,13.0839837 12.1562508,13.0648436 12.0468758,13.0347653 L11.0078125,12.7257813 C10.8519528,12.6792965 10.5839844,12.8351563 10.5457033,12.9937497 L10.2914068,14.046484 C10.264063,14.1613281 10.2203128,14.2707031 10.1656253,14.36914 C9.95507813,14.7519525 9.57500017,14.8749993 9.36171925,14.9187495 C8.91875017,15.0035153 8.46484375,15.05 8,15.05 C7.53515625,15.05 7.08124983,15.0035153 6.63828117,14.9187503 C6.42226571,14.8777347 6.04218733,14.7519533 5.83437508,14.3691408 C5.77968758,14.2679686 5.73593742,14.1613281 5.70859367,14.0464849 L5.45429671,12.9937505 C5.41601563,12.8351571 5.14804679,12.6792974 4.9921875,12.7257821 L3.953125,13.0320324 C3.84375,13.0648453 3.73164046,13.0812508 3.61953092,13.0839854 C3.17929637,13.0976573 2.88124925,12.8269543 2.73632729,12.6628918 C2.13476479,11.9765635 1.6671865,11.1699229 1.37187392,10.3031257 C1.30078,10.095313 1.21874875,9.70703225 1.44570196,9.33515708 C1.50585812,9.23671942 1.57968616,9.14375083 1.66445196,9.06171958 L2.4492175,8.31523471 C2.56406116,8.20585971 2.56406116,7.89140658 2.4492175,7.78203158 L1.66171741,7.03554671 C1.57695162,6.95351546 1.50312358,6.86054688 1.44296741,6.76210921 C1.21874875,6.39023446 1.30078,6.00195329 1.37187392,5.79687517 C1.6671865,4.93007879 2.13203025,4.12617188 2.73632729,3.43710904 C2.88124925,3.27304654 3.1820305,3.00234358 3.6195305,3.01601546 C3.73164004,3.01875 3.84374958,3.03789096 3.95312458,3.06796842 L4.99218708,3.37421875 C5.14804637,3.42070346 5.41601521,3.26484375 5.45429629,3.10625033 L5.70859325,2.05351596 C5.735937,1.93867188 5.77968717,1.82929688 5.83437467,1.73085921 C6.04492146,1.34804671 6.42499983,1.22499983 6.63828075,1.18124967 C7.08124942,1.09648471 7.53515583,1.05 7.99999958,1.05 L8,1.05 Z M6.96367162,2.45546858 L6.73124975,3.41523438 C6.51796842,4.29843717 5.49257779,4.88906233 4.62031233,4.63476579 L3.67695254,4.35585921 C3.22578067,4.88359408 2.87031192,5.49609392 2.63789004,6.15234392 L3.35429662,6.83320313 C4.01054662,7.45664071 4.01054662,8.64335971 3.35429662,9.26679688 L2.63789004,9.94765608 C2.87031192,10.6039061 3.22578067,11.2164059 3.67695254,11.74414 L4.62304646,11.4652334 C5.49257779,11.2082023 6.52070254,11.8015612 6.73398387,12.6847648 L6.96640575,13.6445306 C7.63906217,13.7675775 8.36914021,13.7675775 9.04179662,13.6445306 L9.2742185,12.6847648 C9.48749942,11.801562 10.51289,11.2109368 11.3851555,11.4652334 L12.3312494,11.74414 C12.7824213,11.2164059 13.13789,10.6039052 13.3703119,9.94765525 L12.6539053,9.26679604 C11.9976553,8.64335887 11.9976553,7.45663987 12.6539053,6.83320229 L13.3703119,6.15234308 C13.13789,5.49609308 12.7824213,4.88359325 12.3312494,4.35585837 L11.3851555,4.63476496 C10.5156246,4.89179604 9.48749942,4.29843717 9.27421767,3.41523354 L9.04179579,2.45546775 C8.36913937,2.33242087 7.63906133,2.33242087 6.96640533,2.45546775 L6.96367162,2.45546858 Z M6.68749958,8.05 C6.68749958,8.51891093 6.93766052,8.95220273 7.34374958,9.18665819 C7.74983865,9.42111366 8.25016052,9.42111366 8.65624958,9.18665819 C9.06233865,8.95220273 9.31249958,8.51891093 9.31249958,8.05 C9.31249958,7.58108907 9.06233865,7.14779727 8.65624958,6.91334181 C8.25016052,6.67888592 7.74983865,6.67888592 7.34374958,6.91334181 C6.93766052,7.14779727 6.68749958,7.58108907 6.68749958,8.05 Z M7.99999958,10.675 C7.0621773,10.675 6.19559413,10.1746781 5.72668278,9.3625 C5.25777185,8.55032187 5.25777185,7.54967772 5.72668278,6.7375 C6.19559413,5.92532187 7.0621773,5.425 7.99999958,5.425 C8.93782145,5.425 9.80440503,5.92532187 10.273316,6.7375 C10.7422277,7.54967772 10.7422277,8.55032187 10.273316,9.3625 C9.80440503,10.1746781 8.93782145,10.675 7.99999958,10.675 Z" fill="currentColor"></path>
</svg>
