<?xml version="1.0" encoding="UTF-8"?>
<svg width="16px" height="16px" viewBox="0 0 16 16" version="1.1" xmlns="http://www.w3.org/2000/svg" xmlns:xlink="http://www.w3.org/1999/xlink">
    <path d="M14.5597655,5.60546892 C14.6472658,5.84335904 14.5734373,6.10859375 14.3847656,6.27812533 L13.2007816,7.35546892 C13.2308599,7.58242213 13.2472663,7.814844 13.2472663,8.05 C13.2472663,8.28515558 13.2308599,8.51757829 13.2007816,8.74453108 L14.3847656,9.82187467 C14.5734373,9.99140625 14.6472658,10.2566401 14.5597655,10.4945311 C14.4394531,10.8199215 14.2945307,11.1316401 14.1277345,11.4324214 L13.9992186,11.6539059 C13.8187497,11.9546872 13.6164061,12.239062 13.3949215,12.5070313 C13.2335936,12.7039066 12.9656243,12.7695314 12.7249997,12.6929684 L11.2019525,12.2089837 C10.8355464,12.490624 10.4308584,12.7257804 9.99882746,12.9035148 L9.65703058,14.4648431 C9.60234308,14.7136714 9.41093683,14.9105459 9.159374,14.9515615 C8.78203058,15.0144518 8.393749,15.0472646 7.99726462,15.0472646 C7.60078025,15.0472646 7.21249908,15.0144518 6.83515525,14.9515615 C6.58359283,14.9105459 6.39218658,14.7136705 6.33749908,14.4648431 L5.99570221,12.9035148 C5.56367087,12.7257804 5.15898329,12.490624 4.79257721,12.2089837 L3.27226537,12.695703 C3.03164029,12.7722651 2.76367146,12.7039057 2.60234308,12.5097658 C2.38085854,12.2417974 2.17851454,11.9574217 1.99804562,11.6566405 L1.86953008,11.4351559 C1.70273304,11.1343747 1.55781108,10.8226561 1.43749875,10.4972656 C1.34999883,10.2593747 1.42382687,9.99414079 1.61249858,9.82460921 L2.79648304,8.74726563 C2.76640475,8.51757829 2.74999833,8.28515642 2.74999833,8.05 C2.74999833,7.81484358 2.76640475,7.58242171 2.79648304,7.35546892 L1.61249858,6.27812533 C1.42382687,6.10859375 1.34999883,5.84335904 1.43749875,5.60546808 C1.55781108,5.28007846 1.70273304,4.96835904 1.86953008,4.66757779 L1.99804562,4.44609325 C2.17851454,4.145312 2.38085854,3.86093717 2.60234308,3.59296875 C2.76367146,3.39609342 3.03164029,3.33046858 3.27226537,3.40703075 L4.79531258,3.89101462 C5.16171867,3.60937433 5.56640625,3.37421792 5.99843758,3.19648354 L6.34023446,1.63515525 C6.39492196,1.38632779 6.58632821,1.18945246 6.83789063,1.14843683 C7.21523446,1.08281283 7.60351563,1.05 8,1.05 C8.39648438,1.05 8.78476596,1.08281283 9.16210938,1.14570313 C9.41367221,1.18671875 9.60507846,1.38359408 9.65976596,1.63242154 L10.0015628,3.19374983 C10.4335938,3.37148421 10.8382818,3.60664063 11.2046878,3.88828092 L12.727735,3.40429621 C12.9683597,3.32773404 13.236329,3.39609342 13.3976569,3.59023421 C13.6191415,3.85820346 13.821485,4.14257746 14.001954,4.44335871 L14.1304699,4.66484408 C14.297267,4.96562533 14.4421885,5.27734308 14.5625008,5.60273438 L14.5597655,5.60546892 Z M8,10.2375 C8.78151822,10.2375 9.50367093,9.82056456 9.89443088,9.14375 C10.28519,8.46693544 10.28519,7.63306497 9.89443088,6.95625 C9.50367093,6.27943544 8.78151822,5.8625 8,5.8625 C7.21848136,5.8625 6.49632865,6.27943544 6.10556954,6.95625 C5.71481001,7.63306497 5.71481001,8.46693544 6.10556954,9.14375 C6.49632865,9.82056456 7.21848136,10.2375 8,10.2375 Z" fill="currentColor"></path>
</svg>
