<?xml version="1.0" encoding="UTF-8"?>
<svg width="16px" height="16px" viewBox="0 0 16 16" version="1.1" xmlns="http://www.w3.org/2000/svg" xmlns:xlink="http://www.w3.org/1999/xlink">
    <path d="M9.60312462,6.46875 C12.1937494,6.18437481 14.2406244,4.10624981 14.4781246,1.5 L14.25,1.5 C11.8531246,1.5 9.8125,3.03437519 9.05937481,5.171875 C8.78437519,4.64687538 8.453125,4.15312481 8.07187462,3.69999981 C9.25312519,1.5 11.578125,0 14.25,0 L15,0 C15.5531254,0 16,0.446874619 16,1 C16,4.55000019 13.3562498,7.48124981 9.93124962,7.9375 C9.86562443,7.4312501 9.75624943,6.94062519 9.60312462,6.46562481 L9.60312462,6.46875 Z M1.5,3.5 L1.5,4 C1.5,7.0374999 3.9625001,9.5 7,9.5 L7.25,9.5 L7.25,9 C7.25,5.96249962 4.7874999,3.5 1.75,3.5 L1.5,3.5 Z M8.75,9 L8.75,9.5 L8.75,11 L8.75,15.25 C8.75,15.6656246 8.41562462,16 8,16 C7.58437538,16 7.25,15.6656246 7.25,15.25 L7.25,11 L7,11 C3.1343751,11 0,7.8656249 0,4 L0,3 C0,2.44687462 0.446875095,2 1,2 L1.75,2 C5.6156249,2 8.75,5.13437462 8.75,9 Z" fill="currentColor"></path>
</svg>