<?xml version="1.0" encoding="UTF-8"?>
<svg width="16px" height="16px" viewBox="0 0 16 16" version="1.1" xmlns="http://www.w3.org/2000/svg" xmlns:xlink="http://www.w3.org/1999/xlink">
    <path d="M16,1 C16,4.55000019 13.3562498,7.484375 9.93124962,7.9375 C9.70937443,6.26875019 8.97499943,4.76249981 7.89062452,3.58437538 C9.08749962,1.44687462 11.375,0 14,0 L15,0 C15.5531254,0 16,0.446874619 16,1 Z M0,3 C0,2.44687462 0.446875095,2 1,2 L2,2 C5.8656249,2 9,5.13437462 9,9 L9,10 L9,15 C9,15.5531254 8.55312538,16 8,16 C7.44687462,16 7,15.5531254 7,15 L7,10 C3.1343751,10 0,6.8656249 0,3 Z" fill="currentColor"></path>
</svg>