<?xml version="1.0" encoding="UTF-8"?>
<svg width="19px" height="19px" viewBox="0 0 19 19" version="1.1" xmlns="http://www.w3.org/2000/svg" xmlns:xlink="http://www.w3.org/1999/xlink">
    <title>ReactDatePickerRightNavigator</title>
    <g id="ReactDatePickerRightNavigator" stroke="none" stroke-width="1" fill="none" fill-rule="evenodd">
        <path d="M10.3552323,18.3104391 L18.5185105,10.1472019 C18.9132526,9.75664268 18.9132526,9.11839576 18.5185105,8.72365374 L10.3552323,0.56459936 C9.96471413,0.169857336 9.3264262,0.169857336 8.93172519,0.56459936 L7.99949265,1.4968319 C7.59638501,1.89575673 7.60475062,2.54663409 8.01630588,2.9371523 L13.0763524,7.75783573 L1.0078101,7.75783573 C0.449323537,7.75783573 0,8.20715926 0,8.76564582 L0,10.1093926 C0,10.6678792 0.449323537,11.1172027 1.0078101,11.1172027 L13.0763524,11.1172027 L8.01630588,15.9378861 C7.60897444,16.3284044 7.60056782,16.9792817 7.99949265,17.3782065 L8.93172519,18.3104391 C9.3222434,18.7051811 9.96053133,18.7051811 10.3552323,18.3104391 Z" id="a" fill="#FFFFFF" fill-rule="nonzero"></path>
    </g>
</svg>