<?xml version="1.0" encoding="UTF-8"?>
<svg width="70px" height="70px" viewBox="0 0 60 60" version="1.1" xmlns="http://www.w3.org/2000/svg" xmlns:xlink="http://www.w3.org/1999/xlink">
  <path d="M18.4350282,7 C19.7259205,7 22.9111897,7.88173146 25.5564002,8.97134637 C29.5004551,10.5959812 31.8700565,12.3062615 31.8700565,14.7905984 L31.869,16.796 L32.0677869,16.6869574 C34.9104032,15.151181 39.4596474,13.8163753 41.5486041,13.722991 L41.7703741,13.7177765 C43.0531714,13.7177765 46.192275,14.4790143 48.7227982,15.4353471 C52.6246596,16.9099347 55,18.5831789 55,21.1425031 L55,24.397339 L54.995,24.599 L55,33.2178812 L55,43.0968566 C55,47.3433553 48.9620934,49.9549603 41.7703741,49.9549603 C41.225077,49.9549603 40.6839231,49.9393293 40.1491804,49.9083419 L39.95,49.897 L39.9156849,50.0663904 C39.1648871,53.2166553 33.5089849,54.936782 27.3430488,54.9982907 L27,55 C21.3892106,55 16.1313612,53.6308296 14.5102227,51.0631972 L13.980535,50.9779152 C8.83247793,50.2091868 5.15578878,48.2310901 5.0048278,45.1254389 L5,44.9256753 L5,19.0294953 L5.021,19.045 C5.01315047,18.9727373 5.00822983,18.907825 5.00494221,18.8424577 L5,18.6449931 L5,14.7905457 C5,12.3062615 7.36960139,10.5959812 11.3136563,8.97134637 C13.9588668,7.88173146 17.144136,7 18.4350282,7 Z M38,42.9557978 C35.548032,44.8158754 31.8813653,45.7459143 27,45.7459143 C22.1186347,45.7459143 18.451968,44.8158754 16,42.9557978 L16,49.342883 C16,51.3719809 21.6249456,53 27,53 C32.3750544,53 38,51.3719809 38,49.342883 L38,42.9557978 Z M7,40.2309257 L7,44.9256753 C7,46.7800662 10.0172362,48.3639249 14.275908,48.9998468 L14.2762915,42.8942015 C12.6055596,42.6591623 11.0820762,42.2840978 9.79749814,41.7940209 C8.73567393,41.3895841 7.76063326,40.8758383 7,40.2309257 Z M53,37.8804681 C52.2530297,38.5909665 51.2955032,39.1678663 50.2527528,39.6172406 C48.0018132,40.5888613 45.0039048,41.1536151 41.7703741,41.1536151 C41.262204,41.1536151 40.7598533,41.1396668 40.2653068,41.1123828 L40.2648829,47.9116915 C40.75733,47.9402279 41.2598772,47.9549603 41.7703741,47.9549603 C47.9717351,47.9549603 53,45.7809596 53,43.0968566 L53,37.8804681 Z M38,32.4093855 C35.548032,34.4554709 31.8813653,35.4785136 27,35.4785136 C22.1186347,35.4785136 18.451968,34.4554709 16,32.4093855 L16,39.4351792 C16,41.6671868 21.6249456,43.4580079 27,43.4580079 C32.3750544,43.4580079 38,41.6671868 38,39.4351792 L38,32.4093855 Z M7,31.6676073 L7,36.362357 C7,38.2167479 10.0172362,39.8006065 14.275908,40.4365284 L14.2762915,34.3308832 C12.6055596,34.095844 11.0820762,33.7207795 9.79749814,33.2307025 C8.73567393,32.8262657 7.76063326,32.3125199 7,31.6676073 Z M53,28.9796781 C52.2530297,29.6276815 51.2955032,30.1538369 50.2527528,30.5636839 C48.0018132,31.4498403 45.0039048,31.9649189 41.7703741,31.9649189 C41.2621893,31.9649189 40.7598243,31.9521967 40.2652639,31.9273112 L40.2648829,39.0147074 C40.75733,39.0407338 41.2598772,39.0541703 41.7703741,39.0541703 C47.9717351,39.0541703 53,37.0713959 53,34.6233882 L53,28.9796781 Z M27,20 C25.3528411,20 16,22.0450257 16,24.9362768 L16,28.1963559 C16,31.2532993 22.5620905,33.2986208 27,33.2986208 C31.4379095,33.2986208 38,31.2532993 38,28.1963559 L38,24.9362768 C38,22.0450257 28.6471589,20 27,20 Z M7,23.104289 L7,28.1836281 C7,29.8749057 10.0172362,31.3194472 14.275908,31.8994331 L14.2762915,25.5333028 C12.6055596,25.3189377 11.0820762,24.9768641 9.79749814,24.529895 C8.73567393,24.1610319 7.76063326,23.692477 7,23.104289 Z M41.7703741,15.7177765 C40.512027,15.7177765 34.8484514,17.0772022 32.0775602,19.0176181 C35.8243136,20.0589022 40.2655367,21.8552221 40.2655367,23.8976356 L40.26506,29.7737615 C40.7574504,29.8056188 41.2599384,29.8220655 41.7703741,29.8220655 C47.9717351,29.8220655 53,27.3945012 53,24.397339 L53,21.1425031 C53,18.1453408 43.4519175,15.7177765 41.7703741,15.7177765 Z M18.4350282,9 C16.7227275,9 7,11.9247554 7,14.7905457 L7,18.6449931 C7,20.4965925 10.2016999,22.2082577 14.6627371,22.8432481 C16.6328072,20.125594 25.5428615,18.0670429 27.2711864,18.0670429 C27.7259598,18.0670429 28.6779755,18.2095711 29.8700565,18.4691319 L29.8700565,14.7905457 C29.8700565,11.9247554 20.147329,9 18.4350282,9 Z" fill="currentColor"></path>
</svg>
