<?xml version="1.0" encoding="UTF-8"?>
<svg width="24px" height="24px" viewBox="0 0 24 24" version="1.1" xmlns="http://www.w3.org/2000/svg" xmlns:xlink="http://www.w3.org/1999/xlink">
    <title>icons / large / LogoIcon</title>
    <g id="icons-/-large-/-LogoIcon" stroke="none" stroke-width="1" fill="none" fill-rule="evenodd">
        <path d="M15.5532301,8.99515115 C15.4568998,8.35855326 15.6891479,7.74018646 16.2694781,7.38919131 L16.3303763,7.3534928 C17.3165452,6.79380413 17.8999421,7.35828822 20.1042689,5.8440367 C20.5288426,8.46149906 18.9725096,10.1444178 16.8091964,9.84671609 L16.7238565,9.83413959 C16.2666678,9.76267875 15.6437807,9.59355317 15.5532301,8.99515115 Z M13.9703937,12.2820654 C14.0781964,11.8310921 14.2565624,11.4088689 14.6733156,11.0209907 C15.0823512,10.6402955 15.7231518,10.3683472 16.6917367,10.6617944 L16.746913,10.6790116 C17.5177294,10.9280227 18.335611,10.7648981 19.2618991,10.5031466 C19.1039051,12.4501077 16.6349991,14.3356545 14.8179968,13.6323373 C14.0528312,13.335914 13.8625911,12.7330386 13.9703937,12.2820654 Z M10.8999248,16.0874247 C10.9584807,15.396367 11.1919473,15.1347234 11.5287318,14.7374635 C11.8596077,14.3471732 12.812943,14.1604794 13.6989413,14.4932985 L13.7463371,14.5116269 C14.4736811,14.8013324 15.2068036,14.8696082 16.3394495,14.7374635 C15.7584395,16.570547 13.7994402,17.8226209 12.2051466,17.4996663 C11.009967,17.2566126 10.8413689,16.7784824 10.8999248,16.0874247 Z M8.04765339,18.3372341 C8.19224957,18.0595474 8.65197916,17.6841159 9.01112177,17.5131699 L9.05069116,17.4948697 C9.40981381,17.333664 10.0222511,17.1924953 10.8165659,17.7242393 L10.8617208,17.755061 C11.4951281,18.200584 12.2066726,18.2065192 13.3119266,18.3372341 C12.7614543,20.2527528 9.76195107,21.2934285 8.2850972,20.0133487 C7.61969616,19.4528393 7.90305721,18.6149207 8.04765339,18.3372341 Z M6.40044215,18.7613504 L6.27248953,18.7613504 C5.82677325,18.7580097 5.26960681,18.6913887 4.95348454,17.6154388 C4.54794996,16.2351663 5.18607594,14.4640776 6.80857804,13.3119266 L6.83380449,13.4632192 C7.11831487,15.133016 7.35820312,15.3000779 7.82028661,16.2351663 C8.29596078,17.1977574 7.98672943,17.6795162 7.64855635,18.1230194 C7.31038326,18.5665227 6.86217248,18.7613504 6.40044215,18.7613504 Z M10.9249031,13.1825264 C11.1658487,13.9095941 11.1146521,14.2027001 10.9673935,14.7252955 C10.8201349,15.2478908 10.3767173,15.6193105 9.78291314,15.7143034 L9.7384456,15.7207007 C9.13225296,15.7984377 8.00586677,15.5664312 7.73813642,14.1477626 C7.47335538,12.7477631 7.85591707,11.2044339 9.35749027,10.0825688 C9.78291314,12.5403431 10.6839575,12.4554588 10.9249031,13.1825264 Z M13.155178,9.53806995 C13.7704104,10.1113882 13.7732946,10.7767838 13.6553114,11.3309633 C13.5373282,11.8851428 13.2728541,12.1540491 12.7822945,12.4003584 C12.291735,12.6466677 11.2075593,12.5316475 10.6462745,11.2234201 C10.0414736,9.81287735 10.1383014,8.66354708 11.3691934,7.05504587 L11.4270327,7.18089955 C12.3472012,9.17010766 12.5523746,8.97633387 13.155178,9.53806995 Z M15.2930918,6.51096678 C15.4107762,7.23565956 15.2666422,7.91054579 14.6071858,8.28732799 C13.9477295,8.66411018 13.0569781,8.39105845 12.7253154,8.01779902 C11.3864074,6.51096678 12.3975217,4.34748337 13.905823,3.22018349 C14.3080401,5.38039172 15.1754075,5.786274 15.2930918,6.51096678 Z M18.5197959,4.75051976 C18.1833047,5.37354609 17.4141162,6.13610039 16.6064192,5.99855034 C15.7987221,5.86100029 15.3811065,4.82790357 15.266388,4.10548969 C15.1459829,3.34697985 15.5336525,2.48166543 15.8120427,1.69225151 C14.6228269,1.25242458 13.3426272,1 11.9998764,1 C5.92498567,1 1,5.9251222 1,12.0001236 C1,15.3929849 2.53809204,18.4267695 4.95409984,20.4445016 L5.01559288,20.391156 C5.45028793,20.0056082 5.96830322,19.3791206 6.20434814,19.3791206 C6.4516333,19.3791206 6.65398926,19.5774841 6.65398926,19.7956933 C6.65398926,20.008707 6.12634086,20.4527412 5.71000971,20.8653314 L5.6611871,20.9142145 C5.64969764,20.9264735 5.64097748,20.9383208 5.64097748,20.9502041 C5.64097748,20.968029 5.67585465,20.988991 5.70223009,21.0074812 C7.48726665,22.2588566 9.65485801,23 11.9998764,23 C18.0747671,23 23,18.0743834 23,12.0001236 C23,8.5109288 21.3711945,5.40791146 18.8379915,3.39296509 C18.8110425,3.8852054 18.7314318,4.36038658 18.5197959,4.75051976 Z" id="Shape" fill="#000000" fill-rule="nonzero"></path>
    </g>
</svg>