<?xml version="1.0" encoding="UTF-8"?>
<svg viewBox="0 0 51 14" version="1.1" xmlns="http://www.w3.org/2000/svg" xmlns:xlink="http://www.w3.org/1999/xlink">
    <title>Icons / NPK LOGO / 24</title>
    <g id="Icons-/-NPK-LOGO-/-24" stroke="none" stroke-width="1" fill="#FFFFFF" fill-rule="evenodd">
        <path d="M6.9999438,2 C7.6102851,2 8.19219402,2.11473845 8.7327467,2.31465978 C8.60620567,2.67348429 8.42999225,3.06680902 8.4847218,3.41158622 C8.5368666,3.73995617 8.72669189,4.20954559 9.0938269,4.27206834 C9.46096191,4.33459108 9.81059302,3.9879755 9.9635436,3.70478171 C10.0597418,3.52744845 10.0959284,3.311457 10.108178,3.0877114 C10.5909687,3.47173015 11.0014891,3.94269654 11.3154678,4.47709348 L11.263,4.57930605 L10.7142025,4.65991482 C10.7194832,4.51576906 10.7098496,4.36268408 10.6837586,4.20183486 C9.68179186,4.89013101 9.41661146,4.63354733 8.96835284,4.88795127 L8.94067187,4.90417787 C8.67688542,5.06372112 8.5713181,5.34479694 8.61510461,5.63415961 C8.65626394,5.90616053 8.93939447,5.9830358 9.14720748,6.015518 L9.18599836,6.02123459 C9.30962644,6.03824751 9.42889345,6.04102997 9.54255831,6.03052688 C9.57170328,6.0761432 9.60769401,6.11925371 9.64913633,6.15982108 L9.90996234,6.415568 C9.6435103,6.46688366 9.39566433,6.47642872 9.15768774,6.39955071 L9.13260761,6.39172474 C8.69234173,6.25833963 8.40106872,6.3819525 8.21514347,6.55499578 C8.02571019,6.73130403 7.94463473,6.9232237 7.89563351,7.12821154 C7.8466323,7.33319938 7.9331051,7.60723366 8.28090764,7.74197149 C8.98582663,8.01482842 9.90660631,7.43045134 10.2059079,6.7031377 L10.485,6.97630605 L10.2893467,8.1314992 L10.2775929,8.23675941 C10.2467598,8.85925105 10.9156553,9.30776875 11.4915941,9.00343245 L11.6089513,8.94160712 C10.8509371,10.7385043 9.07265943,12 6.9999438,12 C5.93402637,12 4.94875757,11.6631167 4.13737732,11.0943096 C4.12538848,11.085905 4.10953522,11.0763768 4.10953522,11.0682746 C4.10953522,11.0628731 4.11349893,11.057488 4.11872141,11.0519157 L4.1409135,11.0296961 C4.33015494,10.8421551 4.56999512,10.6403214 4.56999512,10.5434969 C4.56999512,10.4443109 4.47801514,10.3541457 4.36561279,10.3541457 C4.25831965,10.3541457 4.02285815,10.6389128 3.82526949,10.8141618 L3.79731811,10.8384098 C2.69913274,9.92125886 2,8.54226586 2,7.0000562 C2,4.23869191 4.23862985,2 6.9999438,2 Z M6.46207539,9.60192694 C6.10102324,9.36022515 5.82264264,9.42439274 5.65940507,9.49766804 L5.64141898,9.50598632 C5.47817234,9.58368905 5.26920435,9.75433975 5.20347881,9.88056094 C5.13775328,10.0067821 5.0089528,10.3876542 5.31140782,10.6424312 C5.98270503,11.2242857 7.34611561,10.7512513 7.59633028,9.88056094 C7.09394209,9.8211451 6.77051277,9.81844727 6.48260038,9.61593684 Z M4.64026275,7.59633028 C3.90276179,8.12003528 3.61270453,8.92507561 3.79703843,9.5524722 C3.94073037,10.0415403 4.19398784,10.0718226 4.39658615,10.0733411 L4.45474643,10.0733411 C4.66462385,10.0733411 4.86835603,9.98478304 5.02207107,9.78319066 C5.17578611,9.58159828 5.31634581,9.36261699 5.10013028,8.92507561 C4.89009233,8.5000354 4.78105221,8.42409816 4.65172931,7.66509964 Z M7.77224604,8.13331751 C7.36951956,7.98203607 6.93618532,8.06689689 6.78578717,8.24430161 C6.63270333,8.42487427 6.52658213,8.54380318 6.49996582,8.85792033 C6.47334951,9.17203747 6.54998501,9.38936937 7.09324846,9.49984831 C7.81792737,9.64664587 8.70838159,9.07752136 8.97247706,8.24430161 C8.45763798,8.30436736 8.12440049,8.27333291 7.79378961,8.14164859 Z M5.79885921,6.12844037 C5.11632594,6.63837904 4.94243426,7.33989233 5.06278928,7.97625574 C5.1844849,8.62110508 5.69647862,8.72656257 5.97202073,8.6912276 L5.99223324,8.68831972 C6.26214424,8.64514112 6.46369769,8.47631399 6.53063341,8.23877066 C6.59756912,8.00122733 6.6208403,7.86799733 6.51131958,7.53751202 C6.40179886,7.20702671 5.99223324,7.24561048 5.79885921,6.12844037 Z M6.71326975,4.75229358 C6.15377334,5.48343049 6.10976074,6.00585334 6.38467024,6.64700915 C6.63979969,7.24165796 7.1326068,7.29393988 7.35558843,7.1819811 C7.57857005,7.07002231 7.69878555,6.94779218 7.75241428,6.6958924 C7.806043,6.44399263 7.80473202,6.1415401 7.52508093,5.88094089 C7.25107935,5.6256063 7.15781875,5.7136853 6.73956033,4.8094998 Z M7.86628317,3.00917431 C7.18069169,3.52158335 6.72109429,4.5049849 7.32968882,5.18990865 C7.48044459,5.35957202 7.8853316,5.48368644 8.18508448,5.31242181 C8.48483735,5.14115718 8.55035281,4.83439071 8.49685993,4.5049849 C8.44336705,4.17557909 8.04910914,3.99108715 7.86628317,3.00917431 Z" id="Combined-Shape" fill-rule="nonzero"></path>
        <g id="NPK" transform="translate(18.9354, 3.126)" fill-rule="nonzero">
            <path d="M0.934570313,7.9921875 C1.52001953,7.9921875 1.86914062,7.64306641 1.86914062,7.01464844 L1.86914062,3.32470703 L1.91210937,3.32470703 L4.8984375,7.44433594 C5.18310547,7.83642578 5.44628906,7.9921875 5.84375,7.9921875 C6.43994141,7.9921875 6.77294922,7.66455078 6.77294922,7.06835938 L6.77294922,0.982910156 C6.77294922,0.354492187 6.42919922,0.00537109375 5.83837891,0.00537109375 C5.25292969,0.00537109375 4.90380859,0.354492187 4.90380859,0.982910156 L4.90380859,4.62988281 L4.86083984,4.62988281 L1.89599609,0.553222656 C1.60058594,0.166503906 1.33203125,0.00537109375 0.956054687,0.00537109375 C0.34375,0.00537109375 0,0.333007812 0,0.939941406 L0,7.01464844 C0,7.64306641 0.34375,7.9921875 0.934570313,7.9921875 Z" id="Path"></path>
            <path d="M8.33212891,7.9921875 C8.95517578,7.9921875 9.31503906,7.62158203 9.31503906,6.96630859 L9.31503906,5.60205078 L10.5826172,5.60205078 C12.3067383,5.60205078 13.49375,4.52246094 13.49375,2.86816406 C13.49375,1.203125 12.3658203,0.123535156 10.7007812,0.123535156 L8.33212891,0.123535156 C7.70908203,0.123535156 7.34384766,0.499511719 7.34384766,1.15478516 L7.34384766,6.96630859 C7.34384766,7.62158203 7.70908203,7.9921875 8.33212891,7.9921875 Z M9.31503906,4.11962891 L9.31503906,1.6328125 L10.1797852,1.6328125 C11.0069336,1.6328125 11.5010742,2.06787109 11.5010742,2.87353516 C11.5010742,3.68457031 11.0069336,4.11962891 10.169043,4.11962891 L9.31503906,4.11962891 Z" id="Shape"></path>
            <path d="M14.7575195,7.9921875 C15.3805664,7.9921875 15.7404297,7.62158203 15.7404297,6.96630859 L15.7404297,5.68261719 L16.4601562,4.93066406 L18.4689453,7.43896484 C18.7858398,7.84179687 19.0705078,7.99755859 19.484082,7.99755859 C20.0211914,7.99755859 20.4293945,7.58398438 20.4293945,7.046875 C20.4293945,6.77294922 20.2951172,6.47753906 19.9728516,6.08007813 L17.990918,3.65234375 L19.8439453,1.69726562 C20.1071289,1.41259766 20.2091797,1.19775391 20.2091797,0.907714844 C20.2091797,0.402832031 19.7956055,0 19.2799805,0 C18.9469727,0 18.6999023,0.12890625 18.4206055,0.440429687 L15.7833984,3.36230469 L15.7404297,3.36230469 L15.7404297,1.03125 C15.7404297,0.375976563 15.3805664,0.00537109375 14.7575195,0.00537109375 C14.1344727,0.00537109375 13.7692383,0.375976563 13.7692383,1.03125 L13.7692383,6.96630859 C13.7692383,7.62158203 14.1344727,7.9921875 14.7575195,7.9921875 Z" id="Path"></path>
        </g>
        <g id="UI" transform="translate(41.102, 3.1743)" fill-rule="nonzero">
            <path d="M3.07763672,7.95458984 C5.00048828,7.95458984 6.15527344,6.76220703 6.15527344,5.10791016 L6.15527344,0.499511719 C6.15527344,0.193359375 5.96728516,0 5.671875,0 C5.37646484,0 5.18847656,0.193359375 5.18847656,0.499511719 L5.18847656,5.04345703 C5.18847656,6.21435547 4.42041016,7.06298828 3.07763672,7.06298828 C1.73486328,7.06298828 0.966796875,6.21435547 0.966796875,5.04345703 L0.966796875,0.499511719 C0.966796875,0.193359375 0.778808594,0 0.483398438,0 C0.187988281,0 0,0.193359375 0,0.499511719 L0,5.10791016 C0,6.76220703 1.15478516,7.95458984 3.07763672,7.95458984 Z" id="Path"></path>
            <path d="M7.54257812,7.90087891 C7.83798828,7.90087891 8.02597656,7.70751953 8.02597656,7.40136719 L8.02597656,0.499511719 C8.02597656,0.193359375 7.83798828,0 7.54257812,0 C7.24716797,0 7.05917969,0.193359375 7.05917969,0.499511719 L7.05917969,7.40136719 C7.05917969,7.70751953 7.24716797,7.90087891 7.54257812,7.90087891 Z" id="Path"></path>
        </g>
        <path d="M14.3544665,3.68211825 C14.3722386,3.74500611 14.4296568,3.78738638 14.4939105,3.78738638 C14.5581642,3.78738638 14.615582,3.74500569 14.6333545,3.68211825 L14.8220136,3.02180115 L15.482321,2.83313924 C15.5452075,2.81536648 15.5875875,2.75794783 15.5875875,2.69369319 C15.5875875,2.62943855 15.5452075,2.57201991 15.482321,2.55424714 L14.8220136,2.36558523 L14.6333545,1.70526814 C14.615582,1.64238069 14.5581642,1.6 14.4939105,1.6 C14.4296568,1.6 14.372239,1.64238069 14.3544665,1.70526814 L14.1658074,2.36558523 L13.5055,2.55424714 C13.4426135,2.57201991 13.4002335,2.62943855 13.4002335,2.69369319 C13.4002335,2.75794783 13.4426135,2.81536648 13.5055,2.83313924 L14.1658074,3.02180115 L14.3544665,3.68211825 Z M12.8178503,3.75184169 C12.6975458,3.5071275 12.3489363,3.5071275 12.2286317,3.75184169 L11.5956661,5.03693098 L10.1807216,5.24336545 C9.91277069,5.28164454 9.80477016,5.6124869 9.9988978,5.80251601 L11.0228531,6.80324503 L10.782244,8.21547661 C10.7357626,8.48343153 11.0173845,8.688499 11.2579936,8.56135692 L12.5239246,7.89420424 L13.7898559,8.56135692 C14.0304649,8.688499 14.3120869,8.48343111 14.2656052,8.21547661 L14.0236295,6.80324544 L15.0475845,5.80251642 C15.2417123,5.61248731 15.1350786,5.28164496 14.8657609,5.24336586 L13.4508162,5.03693077 L12.8178505,3.75184127 L12.8178503,3.75184169 Z M15.7625757,4.92482747 L15.9129563,5.45253452 C15.9266273,5.5017508 15.9731085,5.53729591 16.0250584,5.53729591 C16.0770083,5.53729591 16.1221223,5.503118 16.1371604,5.45253452 L16.287541,4.92482747 L16.8152403,4.77444466 C16.8644558,4.76077349 16.9,4.71429161 16.9,4.66234115 C16.9,4.61039068 16.8658226,4.56527579 16.8152399,4.55023764 L16.2875406,4.39985482 L16.13716,3.87214777 C16.123489,3.8229315 16.0770079,3.78738638 16.0250579,3.78738638 C15.973108,3.78738638 15.927994,3.8215643 15.9129559,3.87214777 L15.7625753,4.39985482 L15.234876,4.55023764 C15.1856605,4.5639088 15.1501159,4.61039068 15.1501159,4.66234115 C15.1501159,4.71429161 15.1842933,4.7594065 15.234876,4.77444466 L15.7625753,4.92482747 L15.7625757,4.92482747 Z" id="Shape" fill-rule="nonzero" opacity="0.704241071"></path>
    </g>
</svg>